<?xml version="1.0" standalone="no"?>
<!DOCTYPE svg PUBLIC "-//W3C//DTD SVG 20010904//EN"
 "http://www.w3.org/TR/2001/REC-SVG-20010904/DTD/svg10.dtd">
<svg version="1.0" xmlns="http://www.w3.org/2000/svg"
 width="96.000000pt" height="96.000000pt" viewBox="0 0 96.000000 96.000000"
 preserveAspectRatio="xMidYMid meet">
<metadata>
Created by potrace 1.11, written by Peter Selinger 2001-2013
</metadata>
<g transform="translate(0.000000,96.000000) scale(0.100000,-0.100000)"
fill="#000000" stroke="none">
<path d="M248 488 l-75 -143 90 -3 c65 -2 87 -6 84 -15 -21 -51 -33 -47 152
-47 94 0 171 2 171 5 0 3 -11 28 -25 55 -14 27 -25 52 -25 55 0 3 23 5 50 5
28 0 50 2 50 4 0 6 -97 216 -102 222 -3 2 -15 -20 -28 -51 -12 -30 -26 -55
-29 -55 -4 0 -18 23 -31 50 -13 28 -26 50 -30 50 -3 0 -24 -36 -45 -80 l-39
-80 -47 86 -46 86 -75 -144z"/>
</g>
</svg>
