<svg width="3064" height="3535" viewBox="0 0 3064 3535" fill="none" xmlns="http://www.w3.org/2000/svg">
<path fill-rule="evenodd" clip-rule="evenodd" d="M2989.89 1962.01C2947.03 1966.22 2904.16 1970.42 2861.3 1974.63C2656.03 1990.32 2450.83 2023.09 2247.12 2042.76C2242.05 2034.5 2232.12 2035.86 2226.1 2041.6C2205.77 2039.82 2182.99 2024.27 2164.58 2040.44C2163.98 2040.36 2163.38 2040.26 2162.78 2040.2C2129.99 1977.25 2107.33 1910.11 2085.34 1842.88C2071.3 1801.55 2052.41 1761.54 2017.51 1733.78C1957.94 1692.42 1821.46 1608.54 1751.52 1612.07C1750.36 1599.54 1744.52 1586.63 1734.94 1578.29C1756.06 1542.25 1671.59 1518.75 1665.63 1522.92C1669.45 1402.54 1612.85 1298 1488.04 1274.03C1376.23 1250.72 1217.19 1246.81 1157.06 1363.71C1150.45 1362.96 1082.88 1362.61 1076.34 1363.34C1066.17 1350.46 954.544 1472.5 1000.3 1514.99C591.253 1696.01 358.67 1674.41 245.453 2183.3C230.148 2231.1 229.033 2283.41 212.871 2330.15C155.37 2464.47 108.731 2607.5 97.124 2753.65C69.0902 2760.84 65.8662 2810.29 98.3379 2817.44C110.741 2820.17 121.113 2823.91 130.158 2830.99C123.088 2950.77 152.044 3224.36 170.288 3223.52C207.489 3341.96 373.426 3375.39 490.903 3333.77C470.651 3371.88 490.903 3395.85 490.903 3416.21C913.618 3432.21 1375.81 3423 1798.41 3444.94C1852.47 3444.17 1909.32 3458.22 1962.64 3450.13C1995.16 3442.33 1995.21 3391.19 1962.23 3384.86L2106.35 3353.55C2103.13 3352.33 2165.75 3310.66 2213.09 3232.79C2257.15 3145.68 2227.16 3040.52 2247.12 2945.77C2403.04 2933.01 2561.54 2927.56 2715.75 2901.14C2736.78 2964.08 2827.8 2888.81 2856.73 2858.53C2856.7 2858.48 2856.66 2858.44 2856.62 2858.39C2870.63 2854.56 2881.85 2841.43 2882.23 2825.89C2892.05 2811.85 2894.11 2792.07 2884.69 2778.5C2927.85 2529.37 2993.65 2274.99 3017.43 2023.51C3025.84 2021.65 3033.76 2017.96 3040.47 2012.28L3039.93 2011.73C3051.3 1999.05 3053.51 1977.16 3034.55 1966.38C3019.26 1957.68 3006.49 1960.38 2989.89 1962.01Z" fill="#D08B5B"/>
<path fill-rule="evenodd" clip-rule="evenodd" d="M1359.74 2894.47L1392.76 2915.49L1662.91 3002.58L1828 3023.6L1963.07 3002.58V3233.79L1990.09 3450C1978.08 3472.02 1864.02 3472.02 1647.9 3450C1510.13 3435.96 1006.61 3429.15 891.974 3426.15L885.478 3425.98C750.765 3422.09 617.691 3422.09 486.258 3425.98V3344.9L861.465 3158.72L1197.65 2969.55L1359.74 2894.47ZM1168.32 1344.81L1193.14 1363.34L1138.97 1452.38L1402.85 1665.91V1836.47L1486.39 1915.51L1534.15 1836.47L1601.43 1746.95L1649.25 1601.84L1632.97 1506.24L1665.71 1503.15C1665.87 1509.69 1665.85 1516.28 1665.64 1522.92C1671.59 1518.74 1756.06 1542.25 1734.94 1578.28C1744.52 1586.63 1750.36 1599.54 1751.52 1612.07C1821.46 1608.54 1957.94 1692.42 2017.51 1733.78C2052.41 1761.54 2071.3 1801.55 2085.34 1842.88L2088.64 1852.97L2092.05 1863.32L2095.49 1873.66C2114.49 1930.52 2135 1986.86 2162.78 2040.2C2163.38 2040.26 2163.98 2040.36 2164.58 2040.44C2182.99 2024.27 2205.77 2039.82 2226.1 2041.6C2231.98 2035.99 2241.59 2034.56 2246.76 2042.2L2247.12 2042.76L1993.87 2092.67L1826.8 2678.95L1681.3 2560.8L1603.2 2572.42L1396.96 2646.83L1157.09 2709.17L609.496 2860.19H539.762L133.984 2762.16L97.415 2750.09C109.491 2605.17 155.838 2463.38 212.872 2330.15C229.034 2283.41 230.149 2231.1 245.455 2183.29C358.671 1674.41 591.254 1696.01 1000.3 1514.99C954.545 1472.5 1066.18 1350.46 1076.34 1363.34L1076.98 1363.29L1078.37 1363.21L1080.15 1363.15C1096.11 1362.68 1151.13 1363.04 1157.06 1363.71C1160.5 1357.02 1164.26 1350.72 1168.32 1344.81Z" fill="#002B5C"/>
<path fill-rule="evenodd" clip-rule="evenodd" d="M3030.37 1979.82L3022.83 2021.87C3021.04 2022.46 3019.21 2022.96 3017.37 2023.37C3015 2048.43 3012.21 2073.53 3009.06 2098.65L2962.3 2359.42C2954.23 2405.55 2946.57 2451.78 2938.97 2498.03L2928.9 2547.71L2922.66 2578.58C2909.19 2645.44 2896.11 2712.09 2884.63 2778.36C2886.36 2780.86 2887.7 2783.56 2888.68 2786.41L2887.8 2790.14L2887.19 2792.63L2886.56 2795.09C2877.5 2829.93 2861.74 2863.71 2824.59 2873.96C2796.57 2881.69 2765.83 2882.39 2736.9 2885.44L2733.69 2885.79L2227.44 2942.74C2166.27 2949.62 2105.12 2956.71 2043.99 2963.87L1990.99 2970.09C1917.12 2978.65 1842.82 2985.38 1770.04 3000.87C1767.36 3001.44 1765.15 3002.51 1763.34 3003.92C1778 2948.42 1792.03 2892.99 1804.74 2836.92C1819.05 2773.83 1832.64 2710.6 1847.94 2647.73C1878.78 2521.07 1913.35 2395.25 1951.2 2270.5C1959.14 2244.32 1967.27 2218.19 1975.57 2192.12L1981.4 2173.9L1985.88 2159.37C1992.82 2137.23 2001.41 2114.48 2021.76 2102.26C2045.57 2087.97 2078.04 2085.6 2105.05 2080.66L2123.34 2077.22C2150.71 2072.11 2178.1 2067.2 2205.54 2062.48C2336.88 2039.88 2468.96 2021.75 2601.53 2008.13C2739.48 1993.96 2877.91 1984.75 3016.51 1980.25L3030.37 1979.82ZM1773.83 2849.26L1775.12 2849.37L1756.21 3000.59C1753.19 2998.48 1749.35 2997.18 1744.66 2997.19C1682.63 2997.38 1623.17 2977.54 1565.66 2955.74L1556.9 2952.4L1532.49 2943.01C1507.67 2933.5 1482.71 2924.2 1457.3 2916.48L1447.02 2913.38L1441.8 2911.83C1422.55 2906.21 1402.31 2901.11 1382.29 2899.83L1379.56 2899.68L1385.39 2896.62C1386.24 2896.18 1386.99 2895.68 1387.65 2895.14C1398.67 2895.95 1409.71 2895.73 1421.34 2893.63C1443.19 2889.7 1464.45 2882.09 1483.97 2871.5L1492.68 2866.77L1496.25 2864.88L1498.61 2863.66L1500.95 2862.47C1517.71 2854.11 1533.74 2848.88 1554.91 2853.33C1578.93 2858.39 1599.99 2871.34 1621.64 2882.29L1625.49 2884.2L1628.07 2885.45L1630.71 2886.69L1633.37 2887.91C1662.66 2901.09 1709.27 2915.32 1720.5 2875.49C1725.01 2859.48 1721.48 2844.5 1713.65 2831.35C1728.24 2830.09 1754.3 2847.3 1773.83 2849.26ZM2502.87 2351.01L2503.22 2352.82C2507.36 2375.13 2496.98 2396.46 2481.26 2412.02C2468.37 2424.77 2445.56 2431.86 2439.09 2450.21C2435.41 2460.65 2439.33 2470.55 2446.89 2477.46L2445.14 2478.32L2443.44 2479.19L2441.78 2480.07L2440.16 2480.95L2438.58 2481.85C2412.91 2496.6 2392 2520.6 2415.15 2549.59C2441.42 2582.47 2496.32 2583.53 2534.99 2580.96L2537.6 2580.78C2575.1 2577.97 2619.52 2565.37 2639.85 2530.73C2649.18 2514.83 2648.15 2495.62 2635.15 2482.02C2627.31 2473.81 2613.32 2465.39 2600.49 2464.39C2601.05 2457.16 2600.19 2450.17 2597.65 2444.28C2592.15 2431.54 2577.51 2422.96 2563.4 2422.65C2564.54 2395.6 2542.88 2368.89 2526.93 2347.26L2525.31 2345.04L2523.72 2342.86C2516.41 2332.68 2500.75 2338.38 2502.87 2351.01ZM2524.26 2379.82L2538.79 2434.27L2538.54 2434.72C2533.42 2444.44 2546.84 2455.48 2554.8 2447.31L2555.6 2446.44C2565.05 2436.68 2579.55 2449.8 2579.73 2460.19C2579.98 2474.81 2570.47 2486.12 2559.13 2493.58L2558.34 2494.1L2556.25 2495.4C2546.95 2501.55 2553.99 2514.41 2564.22 2512.84C2576.87 2510.91 2587.24 2500.87 2593.64 2488.33C2600.47 2490.29 2608.24 2490.05 2615.44 2494.08C2633.57 2504.22 2623.14 2521.97 2611.33 2532.69L2610.85 2533.12L2609.89 2533.96C2588.23 2552.44 2558.74 2558.86 2530.94 2560.23L2529.34 2560.31C2501.26 2561.51 2464.68 2561.91 2440.61 2545.39C2425.63 2535.11 2421.29 2520.52 2433.97 2506.71C2441.14 2498.91 2448.37 2491.04 2455.82 2483.43C2466.97 2488.75 2476.93 2486.59 2488.34 2481.55C2489.8 2480.91 2488.99 2478.67 2487.56 2478.67C2481.27 2478.66 2458.18 2466.98 2457.06 2459.51C2456.02 2452.6 2468.79 2446.78 2475 2443.44L2475.9 2442.95L2476.68 2442.49C2483.18 2438.56 2489.29 2433.97 2494.88 2428.83C2509.07 2415.76 2519.37 2399.38 2523.87 2381.45L2524.26 2379.82Z" fill="#1F1F1F"/>
<path fill-rule="evenodd" clip-rule="evenodd" d="M1164.85 1336.56C1177.59 1304.54 1220.64 1316.98 1215.84 1350.62C1212.97 1370.77 1201.94 1392.05 1192.03 1409.71C1183.96 1424.09 1174.76 1438.12 1162.28 1448.89C1184.49 1469.62 1207.55 1489.6 1231.19 1508.56C1256.98 1529.25 1284.11 1548.33 1312.15 1565.86C1336.74 1581.23 1362.43 1594.85 1385.61 1612.4C1407.16 1628.71 1426.79 1648.32 1436.78 1673.92C1447.42 1701.19 1442.8 1729.35 1434.96 1756.6L1434.06 1759.68C1426.05 1786.68 1412.19 1819.22 1431.41 1844.65C1441.19 1857.6 1455.42 1866.77 1467.7 1877.12C1478.61 1886.32 1488.85 1896.33 1498.25 1907.07C1518.74 1930.5 1535.4 1956.86 1545.91 1986.24L1546.85 1988.91C1555.87 2014.91 1562.45 2046.76 1550.27 2072.29C1546.78 2079.61 1535.51 2077.23 1533.55 2070.11C1529.13 2053.96 1529.36 2037.06 1525.65 2020.69C1521.79 2003.66 1515.37 1987.5 1506.98 1972.21C1490.75 1942.63 1468.76 1917.36 1442.79 1896L1435.01 1889.67C1414.75 1873.04 1396.14 1855.39 1392.02 1827.86C1387.62 1798.41 1399.42 1770.35 1407 1742.47C1412.29 1723.04 1414.02 1704.42 1408.3 1686.86C1401.33 1698.26 1391.8 1709.07 1384.27 1718.72C1369.27 1737.94 1354.13 1757.05 1339.03 1776.19C1323.55 1795.81 1308.45 1815.75 1294.07 1836.2C1287.63 1845.35 1281.27 1854.55 1274.93 1863.77C1270.16 1870.69 1263.51 1877.61 1258.31 1884.67C1259.57 1888.45 1259.48 1892.8 1257.19 1895.9C1229.62 1933.16 1190.39 1855.41 1180.16 1835.76C1159.33 1795.76 1143.83 1753.25 1122.93 1713.26C1101.27 1671.79 1076.61 1631.43 1049.12 1593.58C1032.5 1570.68 1013.86 1549.18 998.653 1525.56C962.823 1558.06 915.673 1579.85 872.365 1599.6C824.781 1621.31 775.347 1639.04 726.56 1657.87L712.149 1663.47C628.088 1696.29 541.973 1732.35 472.103 1790.64C389.999 1859.15 341.426 1954.62 305.265 2053.49C263.638 2167.32 229.2 2284.21 197.097 2401.03C180.669 2460.8 165.081 2520.84 150.427 2581.08C137.514 2634.14 126.81 2687.74 111.862 2740.26C142.179 2739.19 176.755 2750.93 202.638 2754.32C320.6 2769.76 436.974 2794.39 548.345 2837.02C562.101 2842.28 566.082 2856.03 563.086 2867.17C571.019 2864.93 578.947 2862.66 586.88 2860.43C578.188 2847.11 582.337 2823.29 583.02 2808.52L583.062 2807.51C583.764 2787.83 585.899 2768.13 587.282 2748.49C589.917 2711.05 593.348 2673.88 597.909 2636.65L599.073 2627.34C604.242 2586.84 608.063 2546.1 613.703 2505.67L614.369 2501.04C611.665 2490.69 608.516 2480.48 605.211 2470.3C596.404 2443.2 583.975 2417.69 573.082 2391.45C571.797 2388.36 576.197 2386.58 578.253 2388.43C596.702 2405.04 611.356 2426.1 623.128 2448.13C623.332 2447.09 623.512 2446.05 623.726 2445.01L625.069 2438.39C628.382 2422.26 632.411 2405.29 642.303 2392.2C643.356 2390.81 645.439 2390.52 646.436 2392.2C655.903 2408.23 656.963 2428.53 658.419 2446.76C660.067 2467.39 660.274 2488.28 659.983 2508.97C659.415 2549.4 656.567 2589.94 654.297 2630.3C652.071 2669.96 647.699 2709.12 642.065 2748.39L640.994 2755.76C638.24 2774.45 635.985 2793.38 632.352 2811.94L631.326 2816.99C629.384 2826.2 628.189 2839.18 624.323 2849.97C723.792 2822.21 823.414 2795.09 923.225 2768.44C995.364 2749.18 1067.58 2730.21 1139.76 2711.12C1143.57 2704.25 1148.31 2697.84 1154.23 2692.11C1173.73 2673.21 1199.58 2664.78 1223.28 2679.33C1225.21 2680.51 1225.37 2683.53 1223.28 2684.68C1218.74 2687.16 1214.19 2689.71 1209.72 2692.36L1253.06 2680.62C1285.46 2671.83 1318.25 2660.86 1351.41 2654.74C1412.48 2624.58 1478.17 2602.76 1542.51 2581.19L1550.09 2578.63C1583.03 2567.39 1617.1 2554.81 1651.14 2548.58C1676.06 2544.03 1705.3 2549.53 1715.32 2575.06C1728.01 2583.43 1739.94 2593.25 1751.46 2602.92C1759.79 2609.9 1767.77 2617.33 1775.88 2624.56L1777.38 2625.88C1784.02 2631.63 1789.27 2635.49 1790.9 2644.66C1791.74 2649.39 1788.73 2655.8 1782.9 2655.17C1765.03 2653.26 1750.51 2632.54 1738.39 2620.17C1729.03 2610.61 1719.6 2600.73 1711.06 2590.22C1706.08 2592.93 1699.25 2592.45 1696.08 2586.44C1679.65 2555.3 1634.62 2576.88 1609.7 2584.26L1574.01 2594.83C1556.17 2600.12 1538.33 2605.44 1520.53 2610.85C1471.59 2625.72 1422.89 2642.36 1373.51 2656.01C1377.92 2660.87 1377.32 2669.51 1368.92 2672.8C1330.27 2687.97 1287.86 2695.82 1247.7 2706.23C1222.35 2712.81 1197.01 2719.43 1171.67 2726.08C1167.33 2733.12 1164.21 2741.09 1162.89 2750.36C1158.06 2784.44 1167.38 2823.76 1176.46 2856.73L1177.83 2861.65C1185.3 2888.15 1196.28 2920.64 1219.14 2937.38C1224.72 2941.46 1231.82 2944.3 1238.98 2944.94C1283.73 2921.9 1328.47 2898.86 1373.24 2875.87C1381.54 2871.61 1389.2 2877.38 1391.06 2884.23C1406.85 2881.64 1422.6 2877.56 1436.94 2872.69C1461.04 2864.5 1479.86 2848.88 1502.46 2838.08C1546.18 2817.19 1590.83 2842.85 1629.98 2862.36L1639 2866.8C1656.56 2875.32 1693.08 2891.69 1701.5 2868.38C1709.65 2845.84 1683.89 2821.74 1667.25 2811.6C1647.43 2799.5 1624.34 2793.03 1601.93 2787.63C1589.13 2784.55 1576.18 2782.04 1563.15 2780.2C1548.37 2778.12 1533.1 2778.44 1518.87 2773.64C1511.8 2771.26 1510.71 2760.02 1518.87 2758.17C1540.78 2753.18 1566.92 2758.62 1589.78 2764.18L1601.73 2767.13C1624.76 2772.78 1648.02 2779.88 1669 2791.15C1684.25 2799.36 1700.35 2811.82 1710.87 2827.07C1720 2818.59 1731.37 2818.87 1743.21 2822.02L1749.64 2823.81C1760.25 2826.75 1768.86 2828.78 1779.18 2826.74C1780.56 2819.22 1781.96 2811.7 1783.46 2804.18C1798.18 2730.27 1814.32 2656.64 1832.13 2583.41C1862.84 2457.08 1898.39 2332.15 1938.46 2208.49L1942.49 2196.13C1951.73 2167.85 1959.17 2137.03 1974.07 2111.05C1988.16 2086.48 2010.74 2072.33 2037.56 2064.83C2068.01 2056.33 2099.99 2051.88 2131.05 2046.13C2137.98 2044.86 2144.92 2043.64 2151.86 2042.38C2146 2031.8 2141.62 2019.78 2137.68 2010.56L2136.99 2008.97C2128.53 1989.66 2120.93 1970.01 2113.58 1950.25L2108.09 1935.4C2094.84 1899.63 2081.15 1864.45 2062.51 1831C2042.89 1795.8 2016.87 1767.02 1984.42 1743.19C1918.27 1694.62 1838.54 1669.84 1774.38 1617.93C1771.75 1615.81 1775.12 1612.17 1777.79 1613.52C1821.11 1635.29 1867.88 1650.1 1912.94 1667.83L1921.83 1671.34C1957.44 1685.46 1993.61 1700.84 2024.44 1723.71C2058.81 1749.21 2085.88 1780.87 2106.23 1818.53C2126.28 1855.65 2139.1 1897.2 2153.25 1936.85L2157.03 1947.42C2162.74 1963.26 2168.63 1979.05 2175.39 1994.47C2180.75 2006.71 2190.75 2020.68 2195.3 2034.66C2207.74 2032.5 2220.18 2030.34 2232.63 2028.26C2502.38 1983.2 2775.15 1956.73 3048.52 1948.99C3059.21 1948.68 3064.74 1958.89 3063.17 1968.23C3036.93 2123.42 3013.62 2279.14 2988.04 2434.44C2976.87 2502.23 2965.49 2569.96 2953.83 2637.66C2947.93 2671.95 2941.1 2706.12 2935.51 2740.47C2930.99 2768.21 2927.72 2796.17 2919.97 2823.26C2913.01 2847.56 2902.35 2870.99 2884.83 2889.52C2865.94 2909.51 2839.58 2919.18 2813.04 2923.75C2745.68 2935.34 2676.59 2940.08 2608.68 2947.81L2247.14 2988.95C2252.43 3037 2252.82 3084.29 2250.4 3132.89L2249.02 3159.42C2247.89 3180.76 2246.54 3202.13 2243.47 3223.25C2239.63 3249.75 2227.52 3272.18 2209.67 3291.97C2193.29 3310.14 2173.38 3325.65 2154.01 3340.51C2133.92 3355.94 2113.15 3370.83 2089.52 3380.37L2086.45 3381.59C2065.72 3389.68 2026.82 3402.22 1998.49 3397.64C2002.19 3416.21 2009.36 3436.17 2003 3454.54C2000.06 3463.07 1988.91 3467.33 1982.07 3460.07C1968.54 3445.68 1967.48 3426.68 1964.28 3407.91C1960.94 3388.38 1958.07 3368.78 1955.51 3349.13C1950.57 3311.15 1946.73 3272.81 1945.55 3234.5C1944.35 3195.16 1944.81 3155.76 1946.93 3116.46C1948.02 3096.28 1949.37 3076.11 1951.93 3056.05C1953.02 3047.5 1954.14 3038.94 1955.42 3030.41C1955.88 3027.3 1956.4 3024.2 1956.95 3021.11L1924.5 3024.78C1874.75 3030.33 1824.96 3035.35 1774.85 3036.13C1768.92 3036.22 1764.35 3033.52 1761.37 3029.58C1758.19 3034.76 1752.66 3038.47 1744.73 3038.44C1674.75 3038.18 1609.59 3015.29 1545.94 2988.31C1513.86 2974.71 1482.27 2959.98 1450.14 2946.49C1420.15 2933.91 1388.09 2924.93 1358.83 2910.75L1281.93 2951.1C1281.36 2953.08 1280.64 2954.96 1279.87 2956.53C1274.86 2966.75 1264.99 2972.3 1254.91 2976.48C1245.23 2980.5 1235.21 2981.74 1225.44 2980.73C1167.12 3011.3 1108.78 3041.85 1050.41 3072.33L992.02 3102.77C875.688 3163.37 759.815 3224.96 642.75 3284.13L634.132 3288.47C593.697 3308.75 550.279 3329.31 505.406 3344.65C504.608 3356.01 505.112 3367.06 506.064 3379.09L506.293 3381.71C507.631 3395.92 510.499 3413.73 499.103 3423.85C493.174 3429.11 482.585 3429.13 478.553 3421.2C471.238 3406.81 477.806 3384.13 480.123 3368.5C480.946 3362.94 481.948 3357.23 483.431 3351.68C431.989 3367 378.988 3374.43 326.64 3365.83C275.671 3357.46 236.197 3325.34 204.373 3286.05C170.788 3244.59 146.921 3196.27 134.116 3144.48C119.543 3085.54 118.592 3024.67 118.934 2964.3C119.297 2900.01 121.674 2835.4 129.491 2771.55C120.927 2769.53 111.43 2767.79 102.776 2768.39C98.4897 2775.26 90.1751 2778.14 82.6619 2777.25C66.3239 2795.28 107.765 2813.7 121.008 2818.31C125.607 2819.92 125.114 2827.39 119.81 2827.16L116.47 2827C96.0062 2825.91 74.8647 2822.42 62.833 2803.39C53.1917 2788.15 56.0883 2770.08 67.5816 2757.65C75.1728 2685.84 93.3208 2615.92 110.211 2545.88C126.786 2477.13 145.219 2408.82 164.757 2340.86L173.516 2310.44C204.278 2203.87 236.432 2096.45 278.865 1994.11C300.054 1943.02 324.463 1892.86 357.551 1848.31C388.393 1806.78 424.806 1771.24 466.661 1740.89C544.689 1684.29 636.247 1650.1 726.206 1617.52L730.233 1616.07C776.852 1599.2 823.357 1582.13 869.444 1563.85C910.204 1547.68 949.252 1527.19 989.819 1510.78C988.502 1508.39 987.229 1505.97 986.004 1503.52L985.254 1504.15C985.126 1504.25 984.995 1504.35 984.858 1504.45C980.779 1507.27 974.772 1505.88 971.41 1502.71C961.918 1493.75 965.132 1483.8 971.468 1474.51L972.293 1473.33C980.043 1462.47 986.956 1450.98 994.109 1439.73L998.588 1432.69C1010.59 1413.89 1023.21 1394.96 1039.22 1379.42C1046.63 1372.22 1054.75 1366.83 1063.35 1362.82C1062.62 1361.26 1069.06 1358.08 1070.89 1359.68C1098.14 1349.71 1129.48 1351.8 1159.19 1354.55M2229.65 2990.95L2191.77 2995.26C2150.1 3000 2108.4 3004.59 2066.71 3009.13L1976.14 3018.97C1975.91 3024.14 1975.28 3029.19 1975.17 3033.09C1974.58 3053.2 1974.14 3073.32 1973.72 3093.44C1972.88 3133.76 1973.8 3174.12 1976.45 3214.36C1979.03 3253.36 1982.41 3292.36 1987.68 3331.09L1988.75 3338.83L1989.38 3342.91C1993.67 3343.32 1997.89 3345.36 2001.4 3349.56C2009.06 3358.71 2036.8 3349.81 2047.63 3345.96C2065.45 3339.61 2082.23 3328.9 2097.71 3318.16C2112.82 3307.67 2126.43 3295.43 2139.51 3282.55L2150.22 3271.96C2160.86 3261.37 2171.52 3250.1 2178.04 3236.79C2186.89 3218.73 2188.03 3196.57 2190.63 3176.91C2193.82 3152.72 2197.62 3128.54 2201.64 3104.48M1129.98 2737.08L1126.05 2738.11C983.322 2776.05 840.804 2815.11 697.634 2851.38C626.783 2869.33 555.595 2885.97 484.657 2903.58L473.172 2906.45C417.21 2920.6 360.575 2937.63 317.72 2978.24C316.138 2979.73 313.842 2977.44 315.331 2975.85C361.517 2926.66 427.206 2905.84 490.276 2887.79C501.935 2884.45 513.608 2881.2 525.27 2877.88C439.494 2847.29 352.365 2820.67 263.225 2801.69C240.271 2796.8 217.051 2793.22 194.115 2788.31C178.119 2784.89 162.498 2779.94 146.672 2775.83L134.223 2772.7L134.058 2812.06C133.85 2867.81 133.949 2923.51 136.792 2979.25L137.331 2989.57C140.648 3051.6 145.825 3114.92 167.829 3173.41C185.71 3220.94 214.211 3265.71 251.483 3300.33C270.342 3317.85 290.618 3331.49 315.682 3338.22C338.954 3344.47 363.336 3345.2 387.26 3343.53C502.01 3335.52 604.156 3273.16 703.835 3221.53C866.876 3137.09 1029.94 3052.68 1193.14 2968.55C1188.73 2965.54 1184.57 2962.06 1180.8 2958.15C1158.91 2935.54 1147.37 2904.59 1139.78 2874.61C1131.71 2842.7 1126.89 2808.5 1126.32 2775.56M1337.63 3001.15C1339.08 3000.38 1340.74 3001.35 1340.81 3002.98C1341.31 3015.44 1334.43 3027.74 1329.28 3038.98L1328.73 3040.18C1322.48 3054.09 1315.64 3067.82 1308.55 3081.33C1294.4 3108.33 1279.69 3135.04 1264.34 3161.37C1233.47 3214.35 1199.17 3265.09 1158.62 3311.21C1149.47 3321.63 1134.4 3308.27 1140.28 3297.05C1168.62 3242.97 1201.65 3191.91 1235.65 3141.29C1252.68 3115.95 1269.69 3090.58 1286.88 3065.35C1294.05 3054.82 1301.31 3044.33 1308.77 3034L1313.27 3027.82M3030.44 1979.96C2887.21 1984.28 2744.15 1993.63 2601.6 2008.27C2469.03 2021.89 2336.95 2040.02 2205.61 2062.62C2178.17 2067.34 2150.78 2072.25 2123.41 2077.36L2107 2080.45C2079.63 2085.63 2046.19 2087.78 2021.82 2102.4C1996.13 2117.82 1989.19 2150.05 1980.64 2176.62C1970.59 2207.88 1960.8 2239.22 1951.27 2270.64C1913.42 2395.39 1878.85 2521.21 1848.01 2647.87C1832.71 2710.74 1819.12 2773.96 1804.81 2837.06C1792.1 2893.13 1778.07 2948.55 1763.41 3004.06C1765.22 3002.65 1767.43 3001.58 1770.11 3001.01C1842.89 2985.52 1917.19 2978.79 1991.06 2970.23L1998.2 2969.39C2074.62 2960.4 2151.04 2951.48 2227.51 2942.88L2733.76 2885.92C2763.62 2882.57 2795.61 2882.11 2824.66 2874.1C2874.06 2860.46 2885.64 2805.21 2893.93 2761.21L2894.18 2759.88C2919.17 2626.94 2939.06 2492.84 2962.37 2359.56M1775.19 2849.52C1755.53 2848.22 1728.63 2830.22 1713.72 2831.51C1721.55 2844.65 1725.08 2859.64 1720.57 2875.64C1708.01 2920.18 1651.23 2897.13 1623.88 2883.53C1601.46 2872.37 1579.8 2858.71 1554.98 2853.48C1526.85 2847.57 1507.8 2858.76 1484.03 2871.65C1464.52 2882.24 1443.26 2889.85 1421.41 2893.79C1409.78 2895.88 1398.74 2896.1 1387.72 2895.29C1387.06 2895.83 1386.31 2896.33 1385.46 2896.78L1379.63 2899.84C1405.99 2901.04 1432.84 2909.18 1457.36 2916.63C1482.78 2924.35 1507.74 2933.65 1532.56 2943.17L1556.97 2952.55C1617.2 2975.63 1679.55 2997.54 1744.73 2997.35C1749.42 2997.33 1753.26 2998.63 1756.28 3000.75M1665.22 2709.96C1684.64 2707.59 1702.56 2710.13 1718.08 2722.78C1736.79 2738.02 1749.36 2763.31 1776.26 2764.98C1784.1 2765.46 1785.92 2776.49 1778.13 2778.8C1758.11 2784.73 1741.89 2773.89 1728.25 2759.82L1719.08 2750.23C1705.6 2736.27 1693.16 2725.47 1670.29 2726.3C1645.79 2727.2 1621.24 2732.86 1596.9 2735.74C1569.33 2739 1541.76 2741.78 1514.1 2744.18C1512.82 2744.29 1512.6 2742.27 1513.8 2741.97L1544.78 2734.26M1646.48 2630.55L1649.69 2630.23C1677.88 2627.49 1703.67 2627.38 1728.85 2642.56L1733.68 2645.48C1756.39 2659.28 1781.1 2675.55 1795.3 2697.9C1797.62 2701.56 1793.78 2705.86 1789.89 2704.93C1762.61 2698.38 1742.66 2678.35 1719.71 2663.36C1693.95 2646.54 1667.35 2649.31 1637.99 2651.92C1609.55 2654.46 1581.14 2657.93 1552.98 2662.67C1526.53 2667.12 1499.99 2674.15 1473.27 2676.39L1473.28 2676.34C1470.23 2676.33 1468.48 2671.75 1471.6 2670.19C1498.71 2656.64 1530.12 2650.23 1559.62 2644.04M2503.04 2351.76C2500.31 2338.72 2516.35 2332.67 2523.78 2343.02L2525.36 2345.2C2541.42 2367.2 2564.64 2394.82 2563.46 2422.8C2577.57 2423.11 2592.2 2431.69 2597.7 2444.43C2600.24 2450.33 2601.11 2457.31 2600.54 2464.54C2613.37 2465.54 2627.36 2473.97 2635.21 2482.17C2648.21 2495.77 2649.23 2514.99 2639.91 2530.88C2619.57 2565.52 2575.15 2578.12 2537.65 2580.93L2536.31 2581.03C2497.58 2583.71 2441.77 2582.98 2415.21 2549.74C2389.59 2517.67 2417.91 2491.71 2446.94 2477.61C2439.38 2470.71 2435.47 2460.81 2439.15 2450.37C2445.61 2432.02 2468.43 2424.93 2481.32 2412.17C2497.03 2396.62 2507.42 2375.28 2503.28 2352.98M2524.33 2379.95C2520.06 2398.52 2509.57 2415.51 2494.95 2428.97C2489.36 2434.11 2483.25 2438.7 2476.75 2442.63L2475.97 2443.09C2470.21 2446.32 2456.04 2452.39 2457.13 2459.65C2458.25 2467.12 2481.34 2478.8 2487.63 2478.81C2489.06 2478.81 2489.87 2481.04 2488.41 2481.69C2477 2486.73 2467.04 2488.89 2455.89 2483.57C2448.44 2491.18 2441.21 2499.05 2434.04 2506.85C2421.36 2520.66 2425.7 2535.25 2440.68 2545.53C2464.75 2562.05 2501.33 2561.65 2529.41 2560.45C2557.67 2559.24 2587.89 2552.93 2609.96 2534.1L2610.92 2533.26C2622.92 2522.59 2633.88 2504.5 2615.51 2494.21C2608.31 2490.19 2600.54 2490.43 2593.71 2488.47C2587.31 2501 2576.94 2511.05 2564.29 2512.98C2554.06 2514.55 2547.02 2501.69 2556.32 2495.54L2558.41 2494.24C2570.09 2486.78 2580.06 2475.29 2579.8 2460.33C2579.62 2449.94 2565.12 2436.82 2555.67 2446.58L2555.24 2447.05C2547.34 2455.96 2533.41 2444.73 2538.61 2434.86L2538.86 2434.41M680.95 1863.53C680.914 1861.29 684.051 1860.46 685.147 1862.39C703.493 1894.68 713.083 1934.26 722.857 1969.84C733.092 2007.1 741.356 2044.74 748.779 2082.66C763.814 2159.45 771.826 2235.79 772.369 2314.05C772.444 2325.23 754.248 2328.2 752.468 2316.75C740.651 2240.62 729.328 2164.42 717.421 2088.32C711.429 2050.04 704.456 2011.91 697.784 1973.75M862.575 1919.78C861.224 1915.32 867.702 1913.83 869.359 1917.9C906.177 2008.32 918.646 2110.78 895.008 2206.16C891.391 2220.76 870.028 2214.43 872.756 2200.03M1337.5 1839.43C1337.31 1836.09 1341.64 1835.57 1343.27 1837.86C1360.71 1862.45 1367.95 1895.39 1398.56 1908.09C1413.84 1914.44 1431.04 1913.33 1444.54 1924.05C1453.56 1931.22 1460.49 1942.53 1453.71 1953.39C1451.53 1956.9 1445.41 1958.65 1442.44 1954.84C1438.11 1949.29 1435.82 1942.64 1429.94 1938.48C1421.65 1932.61 1410.47 1932.25 1400.96 1929.49C1388.66 1925.92 1377.81 1919.68 1368.94 1910.4M1628.96 1429.3C1630.75 1428.38 1632.48 1428.97 1633.63 1430.52C1635.27 1432.74 1635.07 1434.89 1633.06 1436.41C1635.75 1441.91 1638.92 1455.66 1639.37 1457.67C1641.21 1465.79 1643.16 1473.86 1645.21 1481.92C1649.33 1498.19 1652.94 1514.58 1657.07 1530.86C1661.45 1548.1 1666.66 1565.17 1672.46 1581.99C1672.84 1583.08 1673.25 1584.19 1673.68 1585.32L1674.34 1587.02L1674.51 1586.76C1675.69 1584.9 1678.14 1586.2 1677.85 1588.17C1677.58 1589.97 1677.22 1591.75 1676.91 1593.55L1677.52 1595.16C1681.31 1605.38 1683.91 1616.14 1676.95 1625.16C1674.34 1628.53 1671.48 1630.53 1667.91 1631.12C1662.18 1650.01 1654.99 1668.54 1647.3 1686.35L1645.04 1691.54C1633.73 1717.52 1621.66 1743.15 1603.64 1765.27C1583.97 1789.41 1556.91 1805.89 1539.77 1832.35C1531.8 1844.65 1526.25 1857.59 1521.75 1871.49L1520.05 1876.77C1516.86 1886.6 1513.17 1896.12 1503.95 1901.89C1501.01 1903.73 1496.61 1903.14 1494.23 1900.63C1475.33 1880.63 1495.12 1843.28 1506.52 1823.92C1522.36 1796.99 1545.29 1779.76 1568.25 1759.44C1593 1737.54 1608.78 1708.25 1624.05 1679.39C1633.41 1661.71 1642.44 1643.64 1651.94 1625.89C1642.01 1617.1 1638.83 1599.66 1635.47 1587.54L1635.16 1586.45C1629.6 1567.03 1625.18 1547.11 1622.39 1527.1C1619.7 1507.87 1618.58 1488.91 1619.29 1469.56L1619.5 1464.63M1665.87 1520.86C1663.68 1517.85 1667.31 1514.44 1670.32 1515.07C1688.63 1518.86 1706.52 1529.94 1722.95 1538.91L1724.71 1539.86C1737.82 1546.93 1751.01 1555.6 1757.9 1569.34C1765.39 1584.28 1764.77 1601.48 1763.75 1617.72L1763.65 1619.24C1762.4 1638.7 1762.2 1658.93 1758.08 1678.05C1755.98 1687.83 1747.12 1690.59 1739.55 1688.27C1730.53 1716.74 1705.22 1737.71 1686.73 1760.17C1663.16 1788.81 1667.59 1827.47 1670.06 1861.96C1671.05 1875.92 1653.69 1879.89 1644.75 1872.44L1624.14 1855.32C1620.71 1852.46 1617.28 1849.59 1613.87 1846.72C1610.94 1844.25 1608.04 1841.77 1605.16 1839.26L1600.86 1835.46C1598.96 1833.76 1590.55 1824.36 1588.09 1823.97C1582.14 1823.02 1567.99 1838.72 1563.15 1843.65L1562.53 1844.26C1553.42 1853.2 1545.19 1862.82 1537.52 1873.02C1536.11 1874.89 1533.35 1873.34 1534.36 1871.17C1541.23 1856.45 1549.22 1842.37 1558.71 1829.19L1560.63 1826.56C1566.94 1818.05 1575.41 1803.03 1586.55 1800.51C1600.16 1797.45 1613.74 1811.1 1623.64 1818.67L1624.27 1819.15C1628.98 1822.68 1633.63 1826.28 1638.28 1829.9C1637.8 1804.22 1641.04 1778.28 1654.29 1756.15C1663.63 1740.55 1677.63 1728.99 1689.61 1715.58C1702.95 1700.64 1709.91 1682.29 1721.99 1666.74C1723.54 1664.74 1725.68 1663.66 1728 1663.32C1728.47 1650.82 1730.31 1638.19 1731.73 1625.82L1732.14 1622.12C1733.58 1608.68 1736.98 1592.27 1730.4 1579.68C1724.19 1567.8 1709.94 1559.41 1699.38 1551.34L1690.76 1544.65M1071.8 1378.77C1066.29 1381.96 1061.14 1385.93 1056.47 1390.89C1041.76 1406.5 1031.24 1425.93 1021 1444.62C1015.49 1454.68 1010.18 1464.86 1004.62 1474.9C1002.21 1479.27 999.723 1483.59 997.21 1487.9C996.049 1489.89 992.597 1493.84 990.886 1496.28C992.787 1498.94 994.752 1501.57 996.757 1504.16C997.522 1505.15 1050.29 1562.66 1068.69 1585.17C1096.86 1619.65 1122.03 1656.06 1143.56 1695.04C1164.64 1733.21 1180.68 1773.62 1200.21 1812.53C1209.98 1832.01 1220.9 1851.35 1234.81 1868.2C1235.35 1868.86 1235.91 1869.48 1236.46 1870.13C1241.77 1855.78 1255.38 1840.42 1262.06 1831.6L1262.69 1830.76C1277.84 1810.32 1293.85 1790.5 1310.2 1771.02C1325.14 1753.23 1340.45 1735.82 1356.14 1718.7L1362.04 1712.29C1372.97 1700.48 1386.85 1682.81 1402.85 1674.37C1401.13 1671.31 1399.15 1668.29 1396.87 1665.3C1381.88 1645.71 1360.69 1631.49 1339.78 1618.65L1326.22 1610.4C1275.11 1579.24 1224.79 1546.64 1180.42 1506.15C1156.94 1484.73 1133.79 1462.29 1114.06 1437.3L1107.08 1428.47M1157.08 1363.34C1133.15 1365.35 1107.3 1364.88 1085.18 1372.68C1104.84 1391.27 1123.53 1411.35 1142.74 1430.26C1144.44 1417.47 1147.94 1404.84 1150.9 1392.37" fill="black"/>
<path fill-rule="evenodd" clip-rule="evenodd" d="M1876.24 851.023C1870.21 798.072 1878.01 687.395 1878.53 680.671C1881.83 638.163 1861.92 470.303 1824.26 485.769C1761.1 435.769 1676.98 424.729 1598.32 419.455C1434.92 408.498 1261.1 433.65 1134.93 543.61C1072.54 600.715 1011.79 683.77 1016.68 770.249C959.987 852.221 880.066 964.664 950.7 1060.5C974.709 1091.11 1012.87 1102.51 1043.03 1125.7C1103.7 1174.64 1141.76 1244.86 1203 1293.5C1365.26 1439.3 1640.76 1469.76 1800.18 1303.93C1923.45 1183.82 1903.52 1004.14 1881.83 851.023C1867.26 748.082 1887.99 954.324 1876.24 851.023Z" fill="#D08B5B"/>
<path fill-rule="evenodd" clip-rule="evenodd" d="M1380.05 194.909C1423.74 186.091 1468.62 180.604 1513.24 182.256L1516.68 182.389C1550.26 183.731 1592.78 186.7 1622.07 206.224C1623.75 204.533 1626.46 203.665 1628.92 204.838C1663.73 221.453 1702.01 233.465 1738.66 245.402C1775.15 257.279 1812.99 265.12 1851.23 268.281C1865.62 269.471 1877.93 285.005 1868.82 298.937C1866.65 302.257 1864.54 305.611 1862.44 308.973C1865.96 308.606 1869.47 308.228 1872.99 307.873C1884.56 306.708 1896.12 319.056 1895.43 330.321C1895 337.406 1894.24 344.408 1893.11 351.325C1897.51 351.233 1901.89 351.893 1906.13 353.682C1927.56 362.732 1926.07 388.26 1924.46 407.682C1922.24 434.635 1912.16 463.183 1893.44 483.355C1907.42 497.87 1917.31 515.204 1923.21 535.791C1927.49 550.824 1929.87 566.836 1928.7 582.485L1928.32 587.17C1926.87 604.152 1923.98 622.953 1911.76 635.169C1905.49 641.468 1897.76 643.763 1890.4 643.036C1894.85 682.171 1897.71 721.531 1900.4 760.75L1901.66 779.495C1907.65 870.139 1912.16 961.373 1910.98 1052.17C1909.88 1137.02 1893.12 1219.37 1841.08 1288.27C1793.68 1351 1725.63 1397.25 1648.65 1414.83C1607.16 1424.32 1564.81 1424.99 1522.81 1418.94C1502.46 1416 1481.97 1411.5 1462.65 1404.39C1441.27 1396.49 1425.9 1384.87 1411.51 1367.46C1404.71 1359.2 1407.98 1341.62 1421.53 1343.28C1442.03 1345.76 1460.74 1348.76 1480.39 1354.82L1483.2 1355.7C1502.77 1361.98 1523.04 1366.65 1543.5 1368.64C1585.41 1372.7 1627.96 1368.61 1668.1 1355.9C1733.47 1335.19 1789.76 1289.02 1825.85 1231.02C1868.68 1162.27 1873.52 1084.22 1872.9 1005.16C1872.24 918.416 1869.42 831.617 1864.81 744.958L1864.03 730.517C1861.59 685.922 1859.24 641.3 1857.17 596.678C1856.53 582.681 1855.55 568.572 1853.78 554.603C1837.63 545.141 1823.16 532.096 1813.73 515.999C1794.78 523.837 1774.84 529.492 1756.5 533.999C1714.03 544.447 1669.93 546.983 1626.69 540.441C1615.03 545.258 1603.13 549.494 1591.06 553.139C1587.79 554.586 1584.53 556.008 1581.27 557.402C1552.15 569.859 1522.62 580.413 1491.88 588.14L1484.33 590.022C1468.16 594.01 1450.59 597.936 1433.37 599.169C1430.55 600.261 1427.5 601.185 1424.16 601.996C1408.49 605.804 1392.22 607.007 1376.15 605.664C1360.5 604.348 1349.19 588.531 1357.82 573.723C1364.11 562.917 1370.47 552.139 1376.88 541.39C1354.57 550.684 1331.53 558.41 1308.3 564.961C1284.84 571.567 1261.04 577.138 1237.22 582.261C1224.48 584.976 1211.69 587.384 1198.98 590.099C1189.88 592.031 1175.91 593.038 1168.49 599.029C1160.29 605.608 1157.97 620.948 1154.86 630.41C1150.77 642.7 1146.94 655.045 1143.44 667.53C1136.47 692.445 1130.76 717.723 1126.34 743.254C1121.91 768.812 1118.94 794.623 1117.29 820.517C1115.64 846.383 1116.37 872.418 1113.71 898.172C1112.28 911.833 1097.61 918.86 1086.78 909.314C1085.51 908.194 1084.23 907.062 1082.96 905.917L1081.07 904.191C1071.8 895.793 1062.82 886.891 1055.4 876.869C1054.06 875.021 1052.77 873.09 1051.56 871.13C1051.37 871.13 1051.2 871.074 1051 870.934L1048.95 869.387C1026.31 852.535 988.483 830.565 966.407 858.561C959.372 867.479 955.771 878.836 952.781 889.792L947.536 909.4C944.143 922.2 940.95 935.072 939.082 948.169C934.855 977.507 936.983 1011.32 957.169 1034.84C965.231 1044.24 976.345 1050.96 988.744 1052.73C995.661 1053.68 1002.49 1052.5 1009.35 1051.63C1016.32 1050.77 1023.04 1052.17 1030.01 1051.49C1041.09 1050.4 1045.94 1063.67 1041.79 1072.01C1039.56 1076.49 1036.92 1080.36 1033.93 1083.63C1036.33 1085.7 1038.63 1087.94 1040.84 1090.29C1047.39 1092.39 1053.27 1096.9 1057.67 1102.86C1061.22 1107.68 1063.07 1112.91 1063.38 1118.43C1063.77 1119.8 1064.1 1121.2 1064.41 1122.63L1070.42 1132.37C1071.74 1134.51 1073.06 1136.62 1074.38 1138.7C1089.66 1162.77 1106.63 1183.15 1127.71 1202.35C1148 1220.83 1170.03 1237.37 1189.1 1257.19L1191.34 1259.55C1209.12 1278.28 1227.86 1300.95 1220.9 1328.19C1219.11 1335.19 1209.34 1340.22 1202.96 1335.49C1182.44 1320.26 1172.1 1296.13 1154.69 1277.66C1136.78 1258.62 1116.93 1241.52 1098.96 1222.54C1081.96 1204.62 1068.55 1184.33 1058.45 1161.99C1054.42 1166.44 1048.54 1169.6 1040.4 1170.83C1026.4 1172.93 1013.35 1164.73 1007.25 1152.61C1003.33 1154.34 999.328 1155.91 995.294 1157.14C974.075 1163.64 960.724 1140.04 968.731 1122.6C973.011 1113.25 978.358 1105.13 984.995 1098.3C964.249 1095.45 943.141 1084.72 929.508 1071.34C895.303 1037.72 890.6 987.193 898.298 942.263C902.385 918.44 909.437 894.337 918.594 871.97C920.186 868.079 921.897 864.16 923.77 860.296C922.734 860.268 921.67 859.821 920.998 858.953C914.812 850.499 907.284 843.584 902.69 834.122C898.463 825.444 893.763 816.654 890.429 807.612C883.573 789.108 880.214 768.224 877.974 748.657C873.355 708.597 875.144 668.79 881.278 628.983C891.717 561.181 916.934 496.297 954.084 439.363C952.062 438.3 950.123 437.017 948.317 435.5L947.425 434.722L945.974 433.412C935.373 423.818 936.289 405.838 945.974 396.121L949.034 393.054C952.907 389.206 956.248 386.157 962.505 381.967C963.429 381.348 964.372 380.766 965.327 380.223C962.051 374.171 960.915 367.094 963.196 359.286C971.147 332.088 1010.28 333.051 1035.09 344.912C1062.53 320.42 1092.96 299.158 1125.94 281.942C1204.5 240.959 1293.32 212.377 1380.05 194.909ZM973.993 911.274C988.662 906.487 1008.15 916.537 1021.33 922.584C1038.04 930.254 1052.26 941.591 1066.04 953.573C1072.9 959.564 1074.12 969.361 1072.42 977.732C1072.25 978.571 1072.08 979.439 1071.89 980.307C1070.07 989.237 1060.1 996.264 1051.28 996.012C1032.83 995.508 1024.05 979.579 1013.6 966.086C1012.37 968.27 1010.83 970.285 1008.93 971.797L1007.64 972.805C1003.31 976.104 998.528 978.742 992.802 978.487C988.743 978.291 984.855 977.256 981.269 975.38C972.311 970.649 968.367 959.06 970.799 949.626C972.311 943.691 975.782 939.044 980.317 935.825L978.627 934.668C975.01 932.151 971.711 929.498 969.14 925.582L968.56 924.655H968.784C965.984 919.84 967.807 913.29 973.993 911.274Z" fill="black"/>
<path fill-rule="evenodd" clip-rule="evenodd" d="M1375.31 662.98L1380.56 662.06L1383.26 661.603C1399 659 1417.66 657.259 1428.54 669.617C1434.64 676.548 1436.74 689.431 1428.54 696.066C1414.12 707.739 1398.17 703.215 1380.89 704.203C1366.64 705.021 1352.95 707.378 1339.23 711.3C1309.14 719.902 1284.61 735.607 1258.9 752.851C1255.53 755.113 1252.09 750.799 1253.7 747.644C1268.54 718.578 1297.29 694.702 1326.1 680.148C1341.47 672.38 1358.3 665.936 1375.31 662.98ZM1385.49 786.629C1390.45 786.629 1395.2 788.314 1399.52 791.432C1403.78 794.5 1407.63 798.978 1410.84 804.564C1416.91 815.134 1420.7 829.728 1420.7 845.864C1420.7 862.001 1416.91 876.595 1410.84 887.165C1407.63 892.75 1403.78 897.229 1399.52 900.297C1395.2 903.415 1390.45 905.099 1385.49 905.099C1380.52 905.099 1375.77 903.415 1371.45 900.297C1367.19 897.229 1363.34 892.75 1360.13 887.165C1354.06 876.595 1350.27 862.001 1350.27 845.864C1350.27 829.728 1354.06 815.134 1360.13 804.564C1363.34 798.978 1367.19 794.5 1371.45 791.432C1375.77 788.314 1380.52 786.629 1385.49 786.629ZM1699.69 786.629C1704.65 786.629 1709.4 788.314 1713.73 791.432C1717.98 794.5 1721.83 798.978 1725.04 804.564C1731.11 815.134 1734.91 829.728 1734.91 845.864C1734.91 862.001 1731.11 876.595 1725.04 887.165C1721.83 892.75 1717.98 897.229 1713.73 900.297C1709.4 903.415 1704.65 905.099 1699.69 905.099C1694.73 905.099 1689.98 903.415 1685.65 900.297C1681.4 897.229 1677.55 892.75 1674.34 887.165C1668.27 876.595 1664.47 862.001 1664.47 845.864C1664.47 829.728 1668.27 815.134 1674.34 804.564C1677.55 798.978 1681.4 794.5 1685.65 791.432C1689.98 788.314 1694.73 786.629 1699.69 786.629ZM1656.94 649.96L1660.96 650.784L1663.63 651.35C1707.02 660.682 1762.03 679.08 1782.34 721.209C1783.13 727.289 1782.3 728.592 1781.62 729.443L1781.39 729.727C1780.83 730.454 1780.39 731.456 1777.75 732.283C1777.02 732.109 1776.28 731.925 1775.53 731.729C1766.03 729.239 1758.51 725.808 1751.24 722.249L1743.34 718.361C1734.19 713.872 1724.95 709.546 1715.16 706.353C1694.27 699.539 1672.79 694.739 1650.97 692.176C1646.24 691.621 1641.68 690.025 1638.09 687.29C1634.68 684.693 1632.08 681.098 1630.89 676.32C1629.35 670.136 1629.79 665.454 1633.11 659.875C1635.6 655.685 1639.17 652.781 1643.27 651.114C1647.45 649.414 1652.21 649.013 1656.94 649.96Z" fill="black"/>
<path fill-rule="evenodd" clip-rule="evenodd" d="M1587.05 1169.68C1569.16 1169.83 1549.04 1163.11 1535.59 1157.86L1532.08 1156.47C1520.44 1151.8 1508.48 1146.45 1499.57 1137.47C1496.72 1134.55 1493.68 1131.24 1492.14 1127.77C1491.23 1125.74 1490.86 1123.63 1491.73 1121.54C1494.96 1121.22 1498.01 1120.81 1500.91 1120.28C1502.28 1120.03 1503.61 1119.76 1504.62 1119.76C1508.35 1119.73 1512.04 1120.21 1515.73 1120.67C1516.26 1120.74 1516.79 1120.81 1517.33 1120.88C1520.2 1121.23 1523.06 1121.62 1525.91 1122C1534.21 1123.11 1542.46 1124.22 1550.87 1124.62C1556.95 1124.91 1563.32 1124.57 1569.75 1124.22C1586.42 1123.31 1603.66 1122.07 1616.5 1133.75C1619.87 1136.81 1621.27 1140.66 1621.27 1144.59C1621.27 1149.36 1619.27 1154.21 1616.21 1158.02C1609.27 1166.64 1598.6 1169.59 1587.05 1169.68Z" fill="black"/>
</svg>
