<svg width="4605" height="8354" viewBox="0 0 4605 8354" fill="none" xmlns="http://www.w3.org/2000/svg">
<path fill-rule="evenodd" clip-rule="evenodd" d="M3182.68 4170.06C3256.41 4171.72 3224.8 3482.43 3175.56 3355.41C3168.67 3329.67 3162.98 3294.5 3164.12 3262.91C3225.01 3269.01 3218.46 3227.25 3215.32 3176.89C3216.35 3136.91 3219.12 3054.41 3158.05 3086.53C2974.95 2719.22 3172.92 1769.72 2690.84 1680.3C2632.74 1666.16 2572.7 1651.53 2523.79 1611.17C2472.04 1515.31 2445.68 1503.07 2359.93 1496.87C2344.05 1410.52 2314.37 1318.28 2225.91 1284.68C2144.93 1252.88 2050.68 1250.34 1966.24 1267.31C1896.34 1290.16 1889.95 1420.33 1874.42 1484.52C1780.29 1459.5 1664.28 1406.9 1613.6 1526.15C1589.05 1518.8 1566.31 1523.57 1541.36 1531.76C1332.31 1565.51 1129.48 1660.27 1051.94 1858.01C1004.04 1976.66 1038.03 2105.83 1055.99 2228.72C1072.75 2362.53 1028.57 2486.51 1008.1 2615.22C977.605 2792.46 972.091 2934.63 991.988 3066.36C939.397 3078.35 935.519 3126.28 956.795 3176.44C963.044 3193.41 969.337 3211.31 983.154 3220.9C1011.26 3238.63 1047.58 3218.2 1078.13 3215.07C1084.48 3285.85 1096.78 3355.3 1117.14 3434.23C1111.24 3457.86 1104.48 3484.24 1098.41 3507.96L1096.36 3505.73C1026.63 3798.42 819.234 4082.72 883.693 4393.78C887.483 4404.14 894.675 4401.98 900.198 4401.8C932.195 4413.99 961.587 4406.26 993.855 4407.5C1070.39 4407.56 1144.34 4417.38 1212.93 4425.93C1225.47 4508.01 1266.24 4642.38 1338.94 4673.68C1340.16 4674.1 1361.71 4669.59 1363.51 4669.46C1169.97 5455.81 821.746 6182.94 683.422 6985.13C682.603 6994.92 698.499 6989.74 703.714 6990.93C703 7013.2 717.354 7018.55 737.453 7026.46C711.553 7080.72 688.222 7134.91 662.438 7189.3C650.483 7216.23 630.998 7242.82 627.448 7271.6C598.904 7289.88 579.679 7325.61 580.188 7358.96C503.216 7391.56 524.137 7552.58 506.576 7632.33C488.819 7751.14 404.358 7834.11 346.446 7931.52C334.644 7951.07 322.077 7976.69 321.519 8001.25C285.618 8018.12 272.231 8054.96 274.607 8116.97C274.479 8189.52 294.902 8217.15 349.971 8218.9C499.551 8233.88 674.098 8227.78 824.546 8210.74C937.092 8196.4 1036.82 8208.3 1011.66 8072.79C1006.48 8039.99 1016.43 7995.82 997.053 7969.27C985.106 7890.24 992.056 7810.58 1017.82 7732.5C1033.48 7666.76 1059.94 7530.96 1048.97 7442.73C1043.9 7401.93 960.771 7379.47 946.138 7377.49C950.793 7346.77 948.744 7293.09 932.25 7271.75C962.538 7267.51 970.151 7259.49 976.459 7225.78C991.533 7171.2 993.539 7111.92 1030.87 7065.93C1098.01 7066.8 1164.92 7049.72 1232.02 7047.65L1235.36 7039.92C1275.05 7039.41 1314.52 7032.39 1352.19 7018.61C1360.54 7022.57 1371.23 7025.97 1375.92 7013.3L1398.33 6943.08C1659.19 6111.25 1948.34 5277.42 2230.28 4451.69C2246.74 4411.54 2266.53 4368.87 2292.27 4333.1C2300.98 4838.33 2406.61 5343.02 2415.68 5848.01C2427.94 6195.41 2424.78 6539.16 2457.39 6887.79C2465.79 6961.58 2474.71 6959.12 2485.7 6954.6C2490.1 6955.29 2500.47 6957.5 2504.97 6958.45C2497.61 7031.77 2489.16 7150.79 2457.78 7225.78C2388.41 7236.51 2400.84 7289.84 2416.22 7334.04C2399.67 7348.21 2402.03 7381.22 2406.94 7399.49C2341.68 7399.56 2327.45 7452.75 2331.94 7486.31C2338.15 7542.45 2334.67 7629.8 2372.05 7677.74C2394.07 7738.87 2429.9 7796.57 2443.89 7862.43C2452.69 7910.89 2449.29 7981.48 2457.78 8029.55C2436.43 8039.43 2445.48 8054.92 2441.88 8084.88C2423.4 8222.04 2488.43 8198.73 2603.42 8208.17C2672.33 8223.42 3197 8253.77 3174.33 8162.51C3178.2 8125.35 3160.95 8109.03 3153.56 8072.44C3150.24 8062.73 3084.88 7950.35 3045.89 7907.8C2915.13 7784.69 2920.84 7619.4 2924.98 7429.02C2917.29 7377.42 2877.67 7328 2827.12 7333.56C2841.64 7278.44 2814.74 7230.53 2758.52 7214.59C2764.14 7152.19 2770.05 7067.41 2790.61 7013.43L2771.24 6993.68L2797.16 6996.78L2805.77 6975.08L2815.15 6998.86C2859.64 6998.86 2909.84 6988.98 2952.47 6984.33C2959.27 6984.71 2956.24 6975.44 2957.35 6971.87C2997.6 6963.52 3002.01 6942.09 2994.9 6891.02C3004.27 6061.93 3000.2 5240.62 2987.39 4409.99C3050.29 4412.8 3111.63 4389.81 3173.44 4374.49C3195.41 4388.3 3201.63 4339.12 3199.06 4328.51C3195.57 4273.55 3188.79 4219.95 3182.68 4170.06Z" fill="#D08B5B"/>
<path fill-rule="evenodd" clip-rule="evenodd" d="M2588.48 3533.81C2588.48 3533.81 2646.1 3936.07 2676.17 4090.77C2676.8 4093.99 2682.7 4097.38 2687.36 4096.55L2687.83 4096.45L2694.15 4094.88L2704.7 4098.84L2713.52 4102.13L2788.35 4129.74L2808.92 4137.39C2878.85 4163.52 2918.97 4179.82 2964.42 4201.01L2991.73 4213.84L2977.91 4234.18C2977.82 4234.32 2977.72 4234.51 2977.62 4234.76L2977.53 4235.02L2977.47 4235.2L2978.28 4237.41C2991.29 4273.51 2993.64 4305.73 2991.11 4361.21L2990.88 4365.96L2990.3 4377.43L2989.86 4386.42L2989.85 4387.17C2989.81 4389.2 2989.68 4391.01 2989.41 4393.41L2989.28 4394.48L2988.49 4400.57L2988.29 4402.36C2988.25 4402.72 2988.22 4403.05 2988.2 4403.35L2988.14 4404.17L2988.12 4404.85L2988.12 4405.02L2993.03 4410.48L2992.46 4419.29C2990.59 4448.2 2969.4 6801.54 2983.88 6915.31L2984.32 6918.32L2984.6 6919.93L2984.64 6921.56C2984.72 6925.93 2984.21 6929.87 2983.19 6934.63L2982.78 6936.44L2981.61 6941.38C2981.34 6942.55 2981.17 6943.38 2981.05 6944.03L2980.97 6944.56L2980.89 6945.23L2982.43 6948.88L2981.61 6962.32L2981.48 6964.76C2981.4 6966.32 2981.34 6967.78 2981.3 6969.18L2980.85 6989.57L2954.56 6991.13C2909.29 6993.72 2869.63 6994.97 2800.51 6996.17L2792.4 6996.31L2715.84 6997.52C2638.68 6998.82 2588.1 7000.47 2536.73 7003.86L2519.76 7005.02L2513.13 6999C2512.75 6998.66 2511.71 6998.44 2511.06 6998.54L2510.81 6998.61L2478.83 7011.35L2482.33 6975.23L2481.09 6974.97L2483.5 6954.91L2483.7 6952.98C2484.97 6940.06 2484.37 6926.78 2482.06 6904.2L2480.58 6890C2479.18 6876.23 2478.52 6867.82 2478.3 6859.13L2478.28 6858.2L2478.22 6854.46L2477.2 6840.51C2467.01 6698.91 2431.22 5786.65 2431.22 5786.65C2424.43 5658.3 2292.21 4408.14 2292.21 4408.14L2291.7 4387.17L2291.48 4379.75L2289.33 4383.43L2286.76 4387.85L2283.5 4393.52C2245.58 4459.71 2213.99 4526.6 2199.15 4577.51L2198.29 4580.51L2189.92 4602.85C1929.07 5299.8 1678.08 6028.21 1376.29 6950.75L1354.91 7016.18L1346.6 7020.02C1289.77 7046.27 1230.43 7051.46 1148.97 7043.32L1146.28 7043.04L1140.91 7042.48C1131.59 7041.46 1123.18 7040.46 1112.14 7039.03L1104.78 7038.06L1067.4 7033.05C1053.15 7031.15 1043.83 7029.99 1034.48 7028.95L1026.9 7028.14L1015.88 7027.06L1006.9 7026.21C893.661 7015.68 801.034 7013.79 712.931 7022.33L709.455 7022.68L689.237 7024.75L684.3 7006.03C683.341 7002.1 682.843 6997.96 682.762 6993.58L682.751 6991.92L682.777 6989.98L684.316 6982.11C722.22 6789.81 993.032 5877.48 993.032 5877.48C1023.69 5777.99 1156.3 5351.72 1199.76 5210.54L1204.72 5194.42L1210.88 5174.29C1274.55 4965.93 1308.86 4844.92 1317.49 4795.09L1317.99 4792.13L1318.12 4791.33L1318.31 4790.54L1323.53 4768.6L1325.85 4765.3C1332.29 4756.17 1335.39 4745.56 1337.29 4727.6L1337.59 4724.62L1337.85 4721.74L1341.26 4679.86L1371.5 4701.86L1373.86 4703.55C1393.68 4717.58 1408.61 4723.13 1417.9 4722.01L1418.54 4721.92L1418.51 4721.75L1459.05 4711.44L1462.27 4720.6L1463.91 4725.2C1467.49 4734.91 1474.83 4741.48 1481.16 4742.5C1485.22 4743.15 1488.46 4741.26 1491.4 4733.69L1491.68 4732.94L1491.82 4732.53L1492.01 4731.59L1492.47 4729.09C1497.58 4700.76 1497.86 4674.37 1494.99 4624.25L1494.73 4619.77L1493.47 4598.78C1491.43 4563.8 1490.97 4545.09 1492.1 4523.58L1492.31 4519.9L1503.29 4337.19L1540.77 4557.65L1555.19 4641.86L1557.43 4655.4L1558.02 4658.85C1565.61 4702.5 1574.84 4725.84 1592.85 4737.38L1593.79 4737.96L1593.76 4730.93L1593.66 4717.06C1593.6 4710.02 1593.53 4702.82 1593.43 4695.39L1593.16 4676.32L1592.87 4658.54L1589.91 4509.54L1628.48 4537.44L1629.47 4538.14C1631.12 4539.3 1632.56 4540.23 1633.79 4540.96L1634.52 4541.38L1635.51 4539.78C1656.21 4505.61 1660.61 4467.5 1651.06 4423.2L1650.63 4421.24L1650.2 4419.38C1641.55 4382.05 1625.11 4344.72 1595.77 4290.92L1594.43 4288.46L1590.11 4280.6L1577.16 4257.38L1567.99 4240.87L1564.22 4234.02C1561.83 4229.65 1559.67 4225.64 1557.61 4221.77L1556.85 4220.32L1541.57 4191.26L1571.51 4187.4C1590.93 4184.89 1557.45 3862.96 1780.41 3717.59C2026.96 3556.85 2588.48 3533.81 2588.48 3533.81Z" fill="#1A67AD"/>
<path fill-rule="evenodd" clip-rule="evenodd" d="M1107.4 3420.4C1120.33 3466.1 1134.79 3533.82 1149.95 3578.93C1177.18 3703.94 1197.62 3830.86 1210.99 3958.11C1215.47 4000.65 1218.97 4043.19 1224.11 4085.53C1218.88 4113.07 1229.62 4191.32 1223.33 4218.68C1114.42 4238.93 962.262 4325.26 874.963 4394.15C846.879 4162.94 975.746 3903.99 1030.88 3685.6C1034.54 3671.57 1038.19 3657.39 1041.68 3643.12C1057.44 3598.71 1088.31 3487.05 1099.25 3442.39L1100.72 3436.3L1102.77 3438.53L1107.4 3420.4ZM2515.97 1603.99C2528.22 1611.69 2540.97 1618.2 2554.04 1623.83C2655.83 1682.48 2834.52 1684.26 2896.04 1799.07C3054.96 2130.21 3059.91 2690.53 3149.31 3084.93C3154.25 3106.68 3200.3 3083.42 3205.3 3104.53C3217.73 3156.92 3204.78 3207.3 3219.3 3254.77C3162.61 3269.4 3015.5 3279 2958.96 3293.97C2972.95 3342.47 3123.97 3735.09 3183.9 4294.77C3162.2 4289.88 3141.01 4282.82 3120.29 4274.7L3112.34 4271.25C2995.75 4220.43 2812.51 4141.37 2685.99 4120.99C2605.87 3632.28 2532.64 3113.05 2523.51 2613.93L2523.12 2590.9C2520.42 2443.25 2502.35 2296.94 2479.66 2151.24L2478.41 2141C2466.11 2039.53 2455.66 1933.84 2479.49 1833.65C2487.2 1836.01 2465.11 1782.09 2455.06 1713.23C2448.84 1670.58 2466.09 1621.28 2441.07 1578.86C2406.33 1519.95 2359.05 1595.27 2362.69 1578.86C2364.51 1570.6 2316.8 1470.34 2334.69 1480.88C2354.22 1492.38 2427.07 1492.08 2455.06 1520.07C2516.24 1581.24 2527.39 1627.77 2516.92 1605.95L2515.97 1603.99ZM1475.41 1556.94C1500.87 1551.97 1574.73 1527.04 1601.25 1528.47C1585.71 1561.73 1623.64 1413.69 1744.02 1447.29C1749.29 1448.76 1873.3 1467.69 1872.79 1492.08C1872.45 1508.43 1736.03 1527.75 1724.42 1548.06C1710.79 1571.93 1734 1643.73 1724.42 1668.44C1695.66 1742.65 1709.25 1763.19 1717.92 1755.26C1724.79 1765.89 1725.74 1781 1727.13 1795.11L1728.7 1810.4C1753.98 2051.69 1806.44 2289.33 1825.55 2531.35C1853.18 2802.14 1793.43 3069.47 1774.19 3338.44C1758.49 3580.76 1779.74 3840.41 1771.16 4082.71C1769.99 4096.15 1765.81 4114.37 1757.35 4126.22L1756.52 4127.34L1756.43 4127.37L1753.08 4128.04C1691.7 4140.45 1600.11 4179.13 1536.96 4178.78C1478.03 4064.08 1414.16 3770.73 1433.29 3572.02C1447.51 3424.3 1466.88 3233.3 1466.88 3196.91C1466.88 3131.08 1086.16 3233.3 974.186 3219.3C937.342 3214.69 935.595 3172.63 931.529 3104.15C930.369 3084.62 973.641 3075.82 974.186 3054.14C978.128 2897.15 977.729 2687.33 979.605 2674.99C995.488 2552.11 1036.25 2432.8 1041.75 2308.67C1043.58 2183.37 991.487 2060.95 1012.53 1935.31C1043.13 1752.32 1206.13 1625.32 1375.08 1578.81C1408.08 1568.72 1441.66 1563.52 1475.41 1556.94Z" fill="#9FD8E5"/>
<path fill-rule="evenodd" clip-rule="evenodd" d="M2785.28 7241.95L2787.68 7243.24L2788.27 7243.61C2800.65 7251.44 2809.02 7265.09 2820.73 7290.79L2827.27 7305.51L2838.48 7308.54C2881.65 7320.25 2913.81 7348.5 2942.89 7414.44L2943.77 7416.45L2944.66 7418.51C2954.44 7441.29 2958.13 7466.49 2957.25 7496.19L2957.17 7498.43L2957.04 7501.59C2956.26 7519.33 2954.5 7533.96 2949.73 7564.95L2946.25 7587.21L2945.25 7593.7C2939.26 7633.13 2937.16 7655.23 2937.74 7680.13C2938.2 7699.68 2940.7 7717.62 2945.55 7734.54C2965.27 7803.38 3003.9 7875.14 3053.66 7944.08C3070.87 7967.92 3149.15 8100.83 3149.83 8103.61L3151.19 8109.22L3152.49 8114.64C3152.7 8115.53 3152.91 8116.42 3153.11 8117.3L3154.72 8124.25L3155.72 8128.65C3159.12 8143.86 3161.63 8156.83 3163.17 8167.71L3163.37 8169.18C3166.16 8189.62 3166.05 8201.72 3159.17 8211.49L3158.71 8212.13L3157.58 8213.66L3156.19 8214.95L3155.34 8215.72L3154.47 8216.47L3151.87 8218.62L3148.73 8219.84C3137.67 8224.16 3099.24 8235.06 3058.88 8243.61C2993.4 8257.49 2925.33 8265.62 2858.05 8265.2C2838.33 8265.08 2817.82 8264.34 2796.56 8263.03C2739.13 8259.47 2678.42 8251.91 2614.16 8241.21L2602.98 8239.32L2591.18 8237.24C2549.4 8229.77 2489.36 8218.01 2478.55 8216.04L2477.53 8215.86L2477.1 8215.85C2452.33 8215.07 2436.42 8198.43 2430.41 8173.23L2430.16 8172.12L2429.92 8171.02C2425.92 8152.1 2426.9 8128.01 2431.73 8100.99C2435.76 8078.41 2445.38 7951.03 2445.38 7951.03L2409.32 7830.79C2409.32 7830.79 2333.15 7484.72 2345.16 7438.32L2345.44 7437.31C2347.05 7431.57 2415.06 7390.58 2418.68 7382C2422.34 7373.28 2413.57 7272.87 2417.25 7262.59L2417.61 7261.64L2417.95 7260.8L2418.1 7260.45C2421.89 7251.95 2457.79 7216.06 2555.85 7211.23C2593.03 7209.41 2665.6 7204.07 2712.61 7211.23C2756.41 7217.9 2775.67 7236.84 2785.28 7241.95ZM885.338 7306.22L890.163 7307.34L891.174 7306.77C899.689 7302.07 907.032 7299.57 916.313 7300.02C928.704 7300.63 939.725 7307.12 948.753 7318.7C954.076 7325.52 951.677 7381.45 951.62 7384.13L951.609 7384.82L951.606 7386.09L951.609 7386.46L951.85 7386.63C955.502 7389.09 963.341 7390.63 978.85 7391.52L982.379 7391.7L989.75 7392.03C1002.49 7392.64 1009.04 7393.26 1016.59 7394.86L1017.38 7395.03C1031.23 7398.06 1042.24 7403.94 1049.89 7414.35C1062.13 7431 1064.47 7454.32 1060.94 7484.13C1059.71 7494.51 977.883 7801.26 972.104 7827.57C963.358 7867.4 980.109 8078.4 981.934 8098.01C984.13 8121.59 984.521 8142.83 982.655 8159.89C979.98 8184.35 973.058 8201.46 956.877 8209.13L956.001 8209.54L954.117 8210.37L949.024 8211.51L945.814 8212.21C912.691 8219.3 881.002 8222.96 828.154 8226.85L787.818 8229.72L778.981 8230.39C766.74 8231.32 757.438 8232.13 748.07 8233.07L739.789 8233.94L739.472 8233.96C600.151 8244.76 430.507 8245.83 308.134 8235.22L300.952 8234.57L295.592 8234.4C276.065 8233.64 263.914 8220.46 257.525 8200.73L257.2 8199.7L256.884 8198.66C253.308 8186.62 251.562 8172.38 250.68 8153.18L250.372 8145.36C250.32 8143.78 250.272 8142.18 250.222 8140.29L249.732 8120.34L249.592 8115.97C249.497 8113.31 249.394 8111.1 249.271 8109.05L249.116 8106.71L248.555 8103.13C244.787 8078.54 470.453 7780.37 482.781 7747.17C497.806 7706.71 522.144 7394.41 532.642 7381.96L532.985 7381.56L564.916 7345.47L569.568 7393.05L569.601 7392.99C570.361 7391.37 570.93 7389.77 571.267 7388.32L571.416 7387.61L571.526 7386.92L571.57 7386.6L571.624 7386.27C577.267 7352.34 595.149 7326.68 623.127 7309.9C646.627 7295.81 676.46 7288.35 711.757 7286.28C763.107 7283.27 820.111 7291.16 885.338 7306.22Z" fill="white"/>
<path fill-rule="evenodd" clip-rule="evenodd" d="M1890.89 1368.9C1900.24 1376.3 1899.27 1396.8 1900.19 1408.28L1900.25 1409.03C1903.19 1443.7 1899.21 1478.53 1890.78 1512.19L1890.06 1514.99C1885.81 1531.51 1882.05 1552.15 1868.83 1563.73C1854.5 1576.26 1831.74 1568.15 1831.23 1547.94C1830.97 1538.54 1834.1 1529.5 1838.06 1520.69C1810.3 1531.42 1782.55 1542.03 1754.68 1552.39C1736.88 1699.89 1942.54 1880.49 2061.61 1943.71C2235 2039.88 2380.9 1892.58 2403.09 1719.41C2406.82 1696.41 2409.32 1672.77 2409.81 1649.45C2410.21 1629.97 2406.25 1602.78 2419.28 1586.12C2410.05 1585.9 2401.85 1587.2 2392.82 1588.62L2393.25 1589.37C2398.37 1598.54 2405.61 1621.37 2389.4 1623.1C2354.4 1619.41 2338.12 1557.94 2329.59 1528.45C2324.04 1508.38 2316.39 1425.07 2333.32 1415.25C2338.42 1435.04 2336.42 1456.53 2342.62 1476.38C2356.74 1482.08 2383.63 1483.62 2389.86 1484.67C2462.59 1485.51 2503.83 1537.82 2533.31 1599.06C2619.73 1670.12 2743.94 1657.91 2837.26 1716.44C3122.82 1923.83 3029.56 2731.22 3171.79 3074.71C3200.27 3062.9 3229.29 3086.54 3233.09 3115.39C3237.03 3137.57 3235.85 3161.33 3236.17 3183.81L3236.3 3186.62C3238.63 3232.59 3246.56 3284.26 3184.59 3285.26C3184.69 3310.93 3189.51 3335.77 3195.7 3360.55C3230.01 3510.51 3244.99 3664.97 3248.37 3818.7L3248.54 3829.99C3249.65 3910.8 3250.64 4160.77 3204.28 4190.35L3206.44 4207.95C3211.81 4251.99 3216.86 4296.14 3219.69 4340.39C3224.14 4363.36 3209 4418.41 3178.1 4403.84C3121.45 4417.88 3065.57 4438.59 3006.7 4438.7C3020.97 4914.17 3013.88 5390.13 3015.98 5865.79C3011.44 6216.42 3030.36 6569.95 3013.82 6919.23L3014.42 6924.16C3019.09 6963.38 3020.5 6997.48 2975.25 7010.92C2974.6 7020.51 2967.23 7025.64 2958.48 7026.76C2933.69 7030.11 2908.89 7033.28 2884.06 7036.33C2860.94 7038.05 2836.19 7043.82 2813.14 7041.07C2815.37 7043.33 2809.32 7043.67 2808.67 7042.03C2787.65 7094.86 2781.55 7152.46 2776.35 7208.82C2827.35 7228.3 2855.2 7272.11 2846.87 7327.05C2898.33 7329.14 2935.92 7386.43 2943.13 7434.73C2947.75 7468.05 2944.05 7501.14 2942.56 7534.52C2935.43 7648.6 2952.17 7771.5 3025.67 7862.49L3028.74 7866.13C3076.01 7921.82 3135.94 7972.86 3156.32 8045.66C3161.97 8048.3 3166.62 8053.42 3168.66 8061.42L3181.87 8113.35L3188.44 8139.32C3193.25 8158.25 3197.52 8177.61 3194.94 8197.21L3194.67 8199.11C3181.8 8323.24 2673.88 8263.41 2574.75 8254.5C2534.9 8248.23 2491.18 8251.65 2455.3 8230.51C2411.29 8201.4 2405.78 8142.37 2413.34 8094.01L2413.97 8089.48C2417.03 8067.86 2421.51 8045.19 2441.98 8033.1C2435.09 7988.29 2437.76 7942.45 2429.56 7897.82C2417.17 7834.68 2379.71 7779.88 2360.59 7719.26C2332.69 7688.18 2331.75 7639.72 2325.92 7599.98C2321.5 7561.42 2317.88 7522.6 2316.39 7483.81C2312.34 7432.53 2334.55 7390.25 2388.37 7383.55C2385.87 7373.83 2392.7 7365.43 2399.5 7359.21C2383.46 7302.12 2379.03 7223.73 2448.64 7204.25C2475 7138.76 2482.67 7067.78 2489.68 6997.92C2488.85 6997.74 2488.02 6997.6 2487.19 6997.45C2452.51 7011.91 2445.3 6943.38 2442.99 6916.56C2410.16 6568.89 2413.19 6219.18 2400.86 5870.45L2399.65 5845.23C2388.85 5615.46 2382.42 5383.66 2342.76 5156.96C2302.84 4904.28 2292.41 4647.48 2278.76 4392.15C2262.69 4417.16 2254.05 4445.89 2241.05 4472.55C2072.3 4969.29 1899.15 5464.54 1732.32 5961.95C1611.4 6322.09 1495.88 6684.14 1380.02 7045.95C1374.11 7064.48 1355.48 7068.31 1341.85 7062.38C1307.14 7074.44 1270.72 7081.29 1234.07 7082.48C1231.86 7087.56 1227.33 7091.29 1220.7 7090.56C1201.1 7088.41 1178.54 7094.54 1158.93 7096.84C1114.08 7101.28 1070.54 7108.17 1025.27 7108.82C997.233 7144.34 995.468 7192.51 982.541 7234.79C975.099 7256.34 976.267 7304.67 950.565 7310.74C959.778 7324.96 960.984 7342.03 959.491 7359.62C967.485 7361.44 975.593 7364.88 983.112 7368.4C990.437 7372.12 1000.11 7371.8 1005.16 7379.28C1148.71 7405.34 1043.8 7678.47 1018.85 7768.8C994.36 7842.66 986.691 7919.79 997.867 7996.89C1014.95 8020.53 1009.23 8055.7 1011.84 8083.72C1013.22 8108.73 1015.75 8134.11 1015.52 8159.15C1012.73 8263.15 884.582 8246.23 812.284 8259.73C767.138 8264.99 721.79 8268.66 676.443 8271.51C561.432 8278.67 445.776 8279.21 331.001 8268.07C256.895 8265.72 240.96 8217.28 241.078 8151.03L240.965 8148.29C239.295 8103.33 246.531 8049.03 289.152 8025.65C291.276 8001.89 303.304 7977.9 315.585 7957.14C372.695 7860.94 458.439 7776.63 475.303 7661.18C491.847 7585.6 473.102 7419.23 549.785 7379.83C551.562 7345.8 572.427 7311.1 598.261 7292.71C603.246 7264.36 622.031 7238.3 633.649 7212.25C657.351 7162.51 679.275 7111.99 702.85 7062.21C690.506 7056.97 677.39 7047.35 675.668 7033.68C663.814 7033.83 652.104 7026.15 653.539 7011.7C657.727 6969.74 666.888 6928.48 675.539 6887.25L676.618 6882.1C830.552 6136.54 1148.43 5439.35 1334.41 4703.34C1309.39 4707.88 1285.99 4679.21 1272.16 4660.54C1227.47 4600.25 1201.08 4527.31 1189.47 4453.3L1168.47 4450.69C1098.42 4442.07 1028.02 4434.53 957.385 4436.55L940.36 4437.12C921.446 4437.7 902.503 4437.55 884.524 4430.73C871.982 4431.9 858.923 4425.15 855.826 4411.05C803.507 4149.8 932.105 3901.87 1024.21 3665.81C1045.91 3607.77 1061.35 3548.88 1076.08 3488.78C1076.56 3486.83 1079.6 3487.24 1079.52 3489.24C1076.65 3556.07 1060.12 3623.44 1043.32 3687.85C988.187 3906.24 873.317 4120.4 901.401 4351.61C988.7 4282.72 1092.39 4234.87 1201.3 4214.63C1207.58 4187.26 1214.53 4160.1 1219.75 4132.57C1214.61 4090.23 1211.11 4047.69 1206.64 4005.15C1193.26 3877.9 1172.83 3750.98 1145.59 3625.97C1103.34 3500.18 1066.45 3372.7 1053.26 3240.08L1050.86 3240.55C1021.56 3246.51 989.285 3259.44 962.106 3240.74C944.854 3228.76 937.392 3208.9 930.42 3189.83C910.513 3143.58 906.831 3082.79 963.165 3063.46C942.165 2916.42 955.812 2762.92 981.189 2617.25C1001.52 2489.57 1046.11 2363.78 1029.41 2233.07C1010.88 2107.47 976.333 1975.92 1026.28 1852.97C1108.36 1647.78 1316.23 1550.42 1520.65 1519.09L1523.96 1518.12C1549.25 1510.61 1572.28 1502.71 1598.63 1508.39C1660.78 1392.83 1761.58 1439.83 1860.01 1465.59C1866.66 1445.99 1872.2 1425.95 1877.41 1405.92C1880.65 1395.71 1879.58 1372.17 1890.89 1368.9ZM2460.61 8089.16L2460.35 8094.2C2457.75 8148.3 2460.68 8194.66 2527.63 8194.3C2573.69 8199.23 2619.77 8204.03 2665.91 8208.21L2683.22 8209.74C2820.16 8221.98 2958.75 8227.97 3095.43 8209.59L3101.13 8208.81C3112.55 8207.19 3133.7 8207.51 3142.75 8199.04C3153.65 8184.34 3141.03 8156.32 3138.38 8139.26C2925.11 8136.77 2711.56 8128.89 2498.15 8131.61C2475.7 8131.73 2465.57 8112.51 2467.64 8095C2465.11 8093.29 2462.73 8091.31 2460.61 8089.16ZM295.265 8062.03C284.781 8098.97 287.364 8133.9 293.288 8170.89C296.25 8209.64 314.644 8212.12 347.932 8213.03C477.878 8225.04 608.769 8222.53 738.752 8212.45C808.418 8204.92 880.013 8205.21 948.384 8189.77C981.003 8175.28 962.172 8129.74 963.28 8101.81C809.733 8200.96 577.511 8188.37 410.069 8131L407.386 8129.86C367.778 8113.18 317.143 8102.69 295.265 8062.03ZM549.612 7394.89C531.243 7415.65 531.59 7476.34 530.758 7493.17C528.775 7533.8 529.09 7574.5 527.334 7615.12C528.628 7786.19 430.043 7871.51 356.83 8009.05C336.806 8042.43 365.937 8047.16 389.633 8057.99C543.071 8129.53 724.567 8140.47 884.865 8085.69C965.44 8062.23 947.846 8007.9 941.007 7941.44C934.27 7805.63 1005.59 7683.28 1026.68 7551.91L1027.45 7547.3C1033.76 7507.91 1043.78 7411.31 983.082 7432.23C969.736 7440.46 957.194 7430.13 955.615 7417.51C954.028 7417.77 952.395 7417.92 950.822 7417.95C943.733 7461.86 936.386 7505.71 929.325 7549.61C935.266 7553.39 940.834 7557.67 945.771 7562.55C951.769 7568.51 947.579 7581.02 938.538 7580.26C933.892 7579.85 929.297 7579.16 924.733 7578.28C921.114 7616.45 860.621 7595.04 878.094 7564.44C791.113 7534.33 695.286 7536.73 606.956 7559.82L606.591 7559.98C599.753 7562.7 550.586 7572.58 566.402 7580.26C572.994 7581.06 557.984 7589.7 555.352 7576.33C554.502 7559.55 592.72 7551.31 604.43 7544.35C574.897 7502 554.718 7447.1 549.612 7394.89ZM2777.96 7260.78C2696.02 7216.32 2595.32 7232.82 2506.44 7240.69L2502.71 7241.11C2480.09 7243.55 2448.57 7245.06 2438.19 7268.4C2423.16 7305.8 2448.08 7389.46 2455.9 7431.06L2459.45 7445.6C2465.61 7471 2471.32 7496.26 2473.44 7522.54C2473.5 7523.42 2472.66 7524.03 2471.89 7524.03C2440.76 7490.7 2426.76 7445.87 2412.22 7403.12C2406.02 7406.67 2399.96 7410.5 2394.25 7414.72C2371.94 7491.55 2364.47 7573.36 2382.14 7651.73L2382.77 7654.5C2404.6 7751.36 2472.55 7830.57 2479.01 7931.79C2483.32 7972.71 2482.36 8014.64 2494.1 8054.38C2500.78 8055.86 2506.61 8060.79 2509.23 8067L2547.53 8067.05C2732.68 8067.36 2917.88 8069.04 3102.91 8076.68C3096.94 8024.55 3051.02 7978.28 3018.67 7942.54C2919.42 7840.69 2876.49 7694.38 2892.85 7553.37C2901.45 7482.82 2940.74 7371.98 2844.63 7345.92C2837.61 7403.42 2828.12 7460.72 2822.87 7518.44C2841.01 7527.21 2839.89 7550.33 2817.74 7549.88C2807.79 7583.41 2774.44 7569.85 2778.04 7538.22C2656.07 7493.07 2586.09 7477.94 2467.27 7545.95C2463.94 7545.46 2476.4 7532.1 2477.97 7529.72C2515.52 7489.15 2573.2 7470.08 2627.31 7469.39C2680.94 7469.38 2731.38 7489.64 2781.97 7505.3C2789.58 7450.83 2794.7 7396.03 2800.73 7341.38L2802.04 7329.67C2805.2 7300.97 2804.04 7277.27 2777.96 7260.78ZM817.795 7964.15C835.647 7960.17 852.064 7954.12 870.203 7958.22C934.034 8006.27 673.22 8019.81 651.014 8016.4C594.482 8014.74 537.925 8007.55 483.519 7991.54L479.334 7990.3C472.159 7988.29 420.349 7973.64 430.421 7967.03C504.007 7973.56 576.047 7987.1 651.014 7983.57C688.411 7982.79 725.952 7980.14 762.947 7974.5C781.345 7971.68 799.656 7968.25 817.795 7964.15ZM2542.15 7904.63C2530.46 7887.08 2587.43 7910.38 2594.84 7910.59C2642.02 7922.25 2690.03 7931.08 2738.49 7934.75C2770.98 7937.22 2803.81 7937.75 2836.36 7936.15C2860.46 7935.31 2884.31 7931.74 2908.26 7929.28L2909.12 7929.24C2923.35 7928.75 2951.86 7937.59 2934.29 7954.56C2906.96 7975.79 2866.53 7969.32 2833.78 7972.44C2734.32 7972.12 2628.99 7956.07 2542.15 7904.63ZM672.255 7777.06C700.93 7771.86 858.753 7770.16 843.022 7818.7C839.205 7827.92 830.48 7830.97 821.296 7829.52C723.615 7805.71 618.248 7793.26 520.883 7826.09C519.304 7826.64 518.214 7824.05 519.764 7823.36C567.637 7799.32 618.859 7782.51 672.255 7777.06ZM2720.87 7729.61C2746.63 7727.65 2772.56 7728.34 2798.34 7730.28L2806.72 7730.93C2818.28 7731.84 2830.19 7732.9 2841.27 7736.27L2843.34 7736.94C2857.49 7741.51 2889.39 7765.89 2865.18 7777.62C2839.17 7786.05 2817.19 7776.02 2792.1 7769.56C2722.18 7752.96 2648.68 7758.58 2579.4 7775.55L2589.16 7778.69C2589.76 7778.26 2590.54 7779.27 2589.96 7779.77C2582.96 7785.9 2573.35 7783.72 2568.38 7776.1C2567.52 7774.79 2568.06 7772.7 2569.44 7771.97C2616.4 7747.29 2668.17 7733.62 2720.87 7729.61ZM543.07 7723.41C622.039 7688.38 713.531 7684.51 798.219 7694.67L804.252 7695.41C830.673 7698.51 865.131 7699.94 880.249 7724.6C885.473 7733.15 880.077 7742.95 871.639 7746.04C846.784 7755.14 817.566 7736.91 793.687 7730.13C723.083 7710.76 647.671 7708.72 575.876 7722.1C576.378 7724.77 564.487 7723.6 561.898 7724.55C558.652 7724.36 537.115 7731.5 543.07 7723.41ZM2534.46 7668.72C2603.35 7635.14 2683 7627.13 2757.38 7644.47L2760.47 7645.35C2793.42 7654.62 2846.48 7665.56 2858.29 7700.53C2860.84 7708.41 2855.3 7719.05 2847.01 7720.65C2818.91 7726.03 2793.4 7705.47 2767.97 7695.58C2693.15 7667.41 2608.46 7660.67 2531.1 7681.39C2530.58 7684.45 2530.07 7687.47 2529.52 7690.52C2530.84 7689.65 2532.22 7691.6 2531.16 7692.68C2518.81 7701.34 2505.97 7679.47 2534.46 7668.72ZM720.583 7609.69C776.325 7605.97 832.536 7613.08 886.349 7627.81L896.468 7630.61C911.176 7634.74 930.228 7641.25 932.368 7657.17C933.2 7663.51 931.622 7667.87 926.484 7671.8C907.751 7685.84 867.004 7656.42 843.713 7652.96C759.151 7627.5 668.382 7627.86 582.724 7647.34L579.805 7648.01L581.872 7662.76C583.904 7669.8 565.073 7653.19 572.228 7645.63C617.447 7622.55 670.21 7613.84 720.583 7609.69ZM2587.01 7583.34C2631.75 7575.25 2677.9 7573.71 2723.13 7577.79L2728.47 7578.28C2755.48 7580.68 2843 7584.16 2822.3 7629.93C2818.83 7637.57 2808.75 7638.56 2802.24 7635.25C2780.37 7624.14 2756.46 7620.13 2732.32 7616.46C2647.1 7604.58 2560.03 7609.45 2476.82 7632.46C2478.63 7635.31 2474.9 7638.68 2471.37 7639.35C2462.59 7640.98 2462.59 7630.48 2466.35 7624.9C2470.83 7618.3 2479.75 7615.88 2486.64 7612.97C2518.68 7598.98 2552.66 7589.52 2587.01 7583.34ZM892.589 7328.71L887.495 7327.49C802.122 7307.36 612.84 7271.26 593.238 7389.13C586.281 7441.05 609.23 7491.69 607.534 7543.1C696.062 7507.01 793.958 7507.39 885.933 7531.24C894.082 7477.88 901.86 7424.46 910.183 7371.13L911.528 7364.76C915.232 7346.77 916.492 7332.7 892.589 7328.71ZM702.447 7350.17C721.051 7334.17 752.074 7334.4 770.325 7351.85C787.012 7355.37 798.785 7373.12 799.055 7388.35C824.426 7433.04 793.828 7494.81 745.384 7505.97C635.996 7529.07 587.092 7378.47 702.447 7350.17ZM2597.69 7278.84C2689.21 7262.45 2722.46 7378.84 2647.34 7426.04C2541.22 7479.39 2470.51 7311.64 2597.69 7278.84ZM747.734 7020.34C749.08 7029.23 744.718 7035.57 739.497 7041.56C720.732 7118.67 692.491 7190.42 664.645 7264.33C755.234 7249.28 840.823 7262.41 920.976 7287.07C921.935 7264.52 932.19 7241.14 939.313 7219.87C953.186 7179.5 969.953 7140.16 989.291 7102.17L991.721 7097.42C998.667 7083.9 1005.35 7069.77 1013.56 7056.83C924.902 7044.7 836.242 7033.76 747.734 7020.34ZM2533.34 7003.91L2530.98 7014.64C2520.8 7061.18 2511.14 7108.15 2496 7153.37L2495.79 7154.3C2493.47 7165.71 2488.26 7218.54 2484.98 7181.25C2482.45 7186.87 2479.75 7192.42 2476.88 7197.89L2492.54 7196.01C2576.33 7186.04 2664.08 7177.42 2746.44 7198.56C2738.11 7133.85 2750.37 7072.02 2768.28 7010.83C2689.79 7009.02 2612 7009.6 2533.34 7003.91ZM1046.94 7084.34C1044.07 7087.04 1041.26 7089.8 1038.59 7092.68C1042.21 7091.75 1045.83 7090.85 1049.18 7090.07C1049.04 7087.94 1047.55 7086.34 1046.94 7084.34ZM2815.72 7024.99L2814.01 7029.01C2813.73 7029.68 2813.45 7030.35 2813.17 7031.01C2814.49 7030.22 2815.96 7029.47 2817.53 7028.8C2816.82 7027.63 2816.21 7026.38 2815.72 7024.99ZM1381.94 3195.67C1373.9 3199.57 1365.52 3200.56 1354.44 3201.02C1264.43 3204.77 1174.71 3215.22 1086.32 3233.04C1091.2 3304.72 1112.95 3374.15 1133.66 3442.49L1137.95 3457.46C1207.9 3702.31 1268.96 3958.16 1256.66 4214.25C1257.35 4214.51 1258.01 4214.86 1258.64 4215.18C1257.52 4218.32 1256.72 4221.53 1255.6 4224.64L1254.88 4226.49L1250.68 4236.95C1248.36 4242.75 1246.1 4248.58 1244.15 4254.55C1240.71 4255.79 1236.49 4256.7 1232.47 4257.28C1212.04 4392.87 1231.46 4544.89 1323.48 4650.91C1285.29 4570.84 1270.63 4471.27 1286.37 4383.83C1294.91 4393.11 1295.52 4414.5 1298.79 4428.38C1307.78 4475.83 1314.08 4523.96 1327.58 4570.43L1329.04 4575.09C1344.17 4622.67 1369.49 4684.03 1413.37 4708.6C1421.65 4711.09 1434.45 4708 1438.37 4718.17C1440.63 4727.25 1436.41 4738.48 1427.11 4741.31L1426.46 4741.49C1399.73 4749.08 1377.06 4728.9 1359.93 4707.61L1359.07 4718.73C1357.43 4739.78 1355.13 4759.98 1342.94 4777.29C1341.5 4783.3 1340.09 4789.35 1338.64 4795.38C1305.63 4999.5 1255.98 5210.52 1165.59 5394.76L1155.08 5426.53C983.239 5945.39 805.268 6463.92 701.699 7002.25C810.521 6990.77 920.257 6996.32 1028.86 7007.13C1131.27 7017.79 1239.6 7046.17 1337.71 7000.85C1603.53 6186.9 1877.73 5375.38 2178.25 4573.83C2214.47 4446.61 2282.5 4323.92 2316.15 4193.49L2318.26 4186.6C2326.17 4160.45 2329.88 4143.49 2324.08 4114.28L2323.83 4110.71C2322.63 4092.43 2322.21 4064.71 2343.02 4059.64C2346.55 4058.77 2351.17 4059.44 2353.61 4062.49C2366.48 4079.03 2354.43 4100.1 2358.14 4119.31C2368.95 4192.79 2340.02 4262.08 2306.2 4325.44C2308.41 4328.12 2309.93 4331.4 2310.19 4335.01C2313.14 4374.06 2312.77 4413.52 2314.47 4452.66C2319.28 4565.19 2326.28 4677.63 2335.16 4789.91C2362.95 4995.55 2402.35 5199.06 2423.76 5405.6C2472.5 5886.68 2463.73 6371.45 2499.13 6853.49C2499.41 6895.83 2512.67 6939.84 2499.24 6980.94C2507.71 6975.35 2519.73 6976.6 2527.17 6983.35C2671.45 6973.34 2815.95 6978.25 2960.21 6969.65C2960.35 6963.14 2960.84 6957.06 2961.1 6952.38C2957.06 6942.76 2963.76 6932.07 2963.56 6921.85C2945.96 6821.81 2960.45 6714.3 2956.82 6612.02C2956.99 6515.22 2957.48 6418.45 2958.14 6321.65C2963.6 5716.75 2956.26 5111.71 2967.29 4506.89C2968.16 4477.14 2969.51 4447.48 2971.43 4417.82C2963.49 4408.97 2968.78 4396.4 2968.79 4385.75L2969.25 4376.29C2971.67 4328.48 2974.41 4284.57 2955.81 4237.45C2956.24 4231.84 2957.54 4226.58 2960.46 4222.27C2873.46 4181.38 2782.62 4150.41 2692.8 4116.72C2677.64 4120.47 2658.67 4111.02 2655.49 4094.68C2621.65 3920.62 2594.99 3745.45 2571.94 3569.68C2421.12 3668.95 2237.23 3684.65 2065.97 3724.86L2033.56 3733.29C1953.62 3754.17 1869.78 3778.48 1808.98 3835.39C1802.84 3925.24 1848.5 4184.15 1711.28 4177.38C1666.33 4191.14 1620.13 4202.17 1574.12 4208.11C1627.68 4310.03 1725.39 4445.82 1648.14 4558.68C1636.94 4570.58 1621.87 4558.51 1611.63 4551.12C1612.9 4617.1 1614.66 4682.74 1614.73 4748.67C1614.73 4757.45 1605.69 4765.39 1596.97 4762.4C1547.49 4745.3 1541.37 4685.92 1533.71 4641.11C1526.85 4601.1 1519.96 4561.09 1513.19 4521.05C1508.87 4592.91 1526.12 4666.86 1512.07 4737.88C1498.59 4778.5 1456.69 4766.4 1444.13 4732.35L1443.76 4731.31C1418.92 4662.26 1406.82 4588.54 1401.8 4515.41L1401.53 4511.13C1400.09 4488.94 1397.73 4465.46 1403.21 4443.96C1414.32 4464.9 1411.55 4499.06 1416.73 4524.39C1425.39 4578.53 1437.11 4632.29 1453.58 4684.56L1454.01 4686.4C1461.45 4717.06 1490.6 4776.79 1490.26 4701.74C1491.38 4663.61 1488.1 4625.6 1486.04 4587.55L1485.75 4582.11C1483.05 4530.15 1483.34 4477.69 1498.9 4427.59C1502.86 4414.77 1524.38 4412.36 1526.99 4427.59C1537.44 4488.54 1547.43 4549.55 1557.42 4610.55C1564.7 4647.81 1564.4 4689.84 1586.52 4721.98C1586.78 4651.82 1582.9 4581.86 1579.55 4511.77L1578.88 4509.61C1576.15 4500.67 1573.2 4488.74 1579.46 4481.01C1581.9 4465.02 1605.2 4466.85 1607.19 4483.6C1607.62 4487.09 1607.93 4490.63 1608.28 4494.15C1616 4503.86 1623.17 4513.78 1632.3 4522.13C1693.24 4397.38 1493.85 4181.93 1466.32 4041.06C1385.25 3766.72 1431.86 3479.08 1455.44 3199.72C1431.06 3196.82 1406.47 3196.05 1381.94 3195.67ZM699.231 7011.79C698.307 7015.24 697.598 7019.03 695.93 7022.17C697.251 7022.4 698.6 7022.66 699.949 7022.95C701.585 7019.64 703.307 7016.41 705.172 7013.24C703.192 7012.78 701.211 7012.31 699.231 7011.79ZM1711.34 5726.95C1713.9 5726.51 1714.93 5730.06 1712.43 5730.87C1628.43 5758.87 1557.62 5810.98 1486.81 5862.68C1476.77 5870.01 1467.38 5854.71 1474.42 5846.43C1504.03 5811.66 1540.29 5787.67 1580.67 5767.47L1583.05 5766.29C1623.44 5745.89 1666.76 5732.9 1711.34 5726.95ZM2515.8 5674.87C2514.82 5672.98 2517.41 5671.52 2518.58 5673.21C2537.3 5699.64 2562.07 5724.24 2586.66 5745C2611.58 5766.06 2638.76 5782.69 2665.42 5801.15C2679.8 5811.1 2667.46 5832.29 2651.84 5824.68C2621.48 5809.88 2594.21 5785.42 2571.91 5759.98C2548.92 5733.72 2531.9 5705.63 2515.8 5674.87ZM1994.22 4758.59C1901.5 4914.77 1764.61 5072.05 1662.44 5232.21C1593.44 5334.88 1531.03 5441.96 1455.42 5540C1440.29 5560.65 1411.13 5543.41 1421.49 5519.91C1450.25 5454.83 1482.31 5392.32 1520.91 5332.67L1533.36 5314.15C1667.78 5114.46 1810.25 4914.38 1994.22 4758.59ZM2380.48 4520.24C2379.67 4517.63 2383.48 4516.48 2384.5 4518.79L2384.61 4519.07C2454.21 4710.41 2561.52 4884.37 2655.4 5063.79C2662.66 5078.48 2643.32 5096.18 2631.75 5082.28C2565.48 5002.61 2519.02 4908.89 2477.8 4814.04C2434.35 4720.02 2407.69 4619.87 2380.48 4520.24ZM2542.2 1616.76C2584.82 1702.54 2616.11 1793.33 2637.78 1886.75C2644.46 1915.6 2605.87 1933.3 2590.28 1908.03L2589.82 1907.25C2570.65 1875.18 2542.08 1846.94 2505.93 1835.9C2481.29 1939.46 2493.29 2048.91 2506.09 2153.49C2528.79 2299.18 2546.86 2445.5 2549.56 2593.14L2549.69 2601.05C2557.6 3105.26 2631.49 3607.19 2712.43 4100.84C2841.82 4121.69 2960.27 4180.48 3079.54 4232.16C3100.27 4240.27 3121.45 4247.34 3143.15 4252.22C3083.22 3692.55 2855.32 3167.67 2784.9 2610.04C2766.29 2465.01 2765.42 2317.74 2791.13 2173.55C2791.56 2170.79 2795.46 2171.72 2795.63 2174.16C2798.46 2233.39 2808.56 2291.85 2814.55 2350.75C2818.62 2317.11 2828.04 2283.03 2835.64 2250.78C2844.94 2219.23 2848.38 2168.59 2875.63 2148.02L2877.34 2142.06C2878.06 2139.5 2881.85 2140.58 2881.25 2143.13C2880.96 2144.36 2880.67 2145.55 2880.42 2146.77C2897.92 2151.44 2881.57 2172.25 2877.23 2182.22C2849.14 2257.8 2840.78 2339.61 2821.61 2417.52C2849.35 2660.71 2899.32 2900.82 2960.86 3137.2C3017.41 3122.23 3074.14 3107.83 3130.83 3093.2C3004.39 2679.8 3078.32 2218.45 2888.88 1823.72C2817.9 1691.24 2643.11 1709.24 2542.2 1616.76ZM1581.53 1541.19C1555.01 1539.77 1527.31 1554.22 1501.85 1559.19C1468.1 1565.76 1434.52 1570.97 1401.52 1581.06C1232.57 1627.56 1069.57 1754.57 1038.97 1937.55C1017.93 2063.2 1070.02 2185.62 1068.19 2310.92C1062.69 2435.05 1021.93 2554.36 1006.05 2677.24C986.936 2802.9 980.361 2934.43 996.746 3060.69C1148.3 3017.52 1306.58 3014.82 1461.99 3037.11C1449.03 2845.73 1466.04 2653.4 1475.45 2462.15C1482.22 2339.33 1493.82 2215.95 1489.71 2092.89C1489.63 2090.16 1494.05 2089.49 1494.47 2092.22C1541.08 2343.56 1513.74 2598.7 1509.04 2852.17C1506.04 2916.22 1513.94 2980.87 1510.75 3044.56C1581.41 3059.83 1578.85 3142.56 1557.25 3197.1C1553.42 3210.22 1540.42 3207.94 1529.9 3206.35C1518.49 3218.38 1491.3 3202.68 1475.79 3202.68C1463.66 3517.31 1389.94 3853.37 1541 4147.43C1604.16 4147.78 1664.95 4125.9 1726.33 4113.49L1729.68 4112.82L1729.77 4112.79C1738.79 4101 1743.2 4082.04 1744.41 4068.16C1752.99 3825.86 1726.14 3583.01 1741.85 3340.69C1761.08 3071.72 1820.83 2804.39 1793.2 2533.6C1774.09 2291.58 1721.64 2053.94 1696.35 1812.64L1695.07 1800.16C1693.49 1785.28 1692.9 1768.85 1685.57 1757.5C1642.92 1796.53 1607.12 1842.94 1581.5 1895.16C1567.31 1920.38 1529.31 1909.15 1528.72 1880.68C1523.26 1829.83 1522.45 1778.8 1527.98 1727.94L1528.49 1723.45C1535.35 1659.79 1554.51 1599.03 1581.53 1541.19ZM3167.23 3287.36C3112.29 3290.27 3057.29 3296.39 3002.25 3295.67L3007.79 3316.55C3074.41 3567.04 3145.35 3817.09 3187.17 4073.39L3188.69 4049.36C3190.2 4025.32 3191.65 4001.27 3192.6 3977.17C3204.46 3746.83 3186.34 3516.79 3167.23 3287.36ZM3006.5 3287.59L2999.99 3287.27L3000.39 3288.69C3001.73 3288.42 3003.09 3288.18 3004.46 3287.94L3006.5 3287.59ZM3185.54 3118.41C3184.51 3118.09 3182.75 3118.09 3180.8 3118.18C3177.99 3124.69 3172.31 3130.07 3165.7 3131.85L3110.64 3146.79C3064.74 3159.24 3018.81 3171.64 2972.83 3183.69C2980.55 3213.58 2988.39 3243.48 2996.31 3273.34C3059.02 3253 3128.46 3257.61 3192.4 3244.52C3191.61 3210.02 3189.74 3175.34 3189.15 3140.77C3189.01 3135.13 3190.16 3126.06 3187.29 3121C3185.48 3117.77 3187.29 3118.96 3185.54 3118.41ZM1078.95 3234.55L1077.22 3234.93C1077.8 3236.5 1078.31 3238.07 1078.8 3239.67C1078.83 3237.95 1078.86 3236.27 1078.95 3234.55ZM1487.22 3068.51C1369.06 3051.2 1248.91 3040.97 1129.74 3052.75C1075.84 3060.1 1021.13 3067.94 968.301 3077.96C949.933 3106.37 970.256 3175.49 993.128 3197.36C999.987 3199.98 1011.78 3194.89 1018.36 3193.4C1067.67 3182.19 1117.47 3173.15 1167.51 3166.1C1169.01 3167.99 1171.19 3169.21 1173.89 3168.95L1185.38 3167.88C1254.41 3161.54 1324.05 3156.9 1393.22 3160.87L1393.74 3161.27C1440.41 3164.7 1486.92 3172.11 1533.39 3177.47C1551.74 3129.14 1548.58 3073.69 1487.22 3068.51ZM2346.9 1492.4C2351.46 1507.97 2356.95 1523.11 2363.77 1537.82C2370.9 1535.83 2380.72 1537.42 2385.96 1541.95L2388.19 1541.54C2394.31 1540.37 2401.67 1538.58 2403.58 1538.37C2488 1526.6 2481.57 1640.39 2481.88 1697.57C2482.39 1726.24 2482.97 1754.94 2483.83 1783.61C2507.99 1775.32 2540.29 1790.23 2561.41 1803.41C2544.88 1747.96 2525.45 1693.41 2503.78 1639.82L2498.85 1627.29C2481.99 1584.74 2463.11 1541.88 2427.43 1512.26C2399.86 1504.99 2373.14 1503.67 2346.9 1492.4ZM1734.82 1463.85C1656.35 1435.65 1625.27 1499.73 1603.51 1563.64C1577.85 1634.42 1570.85 1712.34 1575.13 1788.5L1577.77 1784.98C1606.64 1746.2 1648.26 1682.2 1700.89 1692.48C1700.38 1663.06 1701.44 1630.74 1707.03 1600.19C1703.76 1580.48 1702.93 1560.56 1705.2 1540.64C1706.4 1515.66 1733.4 1519.45 1751.18 1515.92C1766.56 1505.6 1785.19 1501.44 1803.9 1508.71C1818.02 1506.82 1832.14 1505.02 1846.26 1503.22C1848.43 1498.42 1850.18 1493.6 1852 1488.68C1812.92 1480.54 1773.85 1472.15 1734.82 1463.85Z" fill="black"/>
<path fill-rule="evenodd" clip-rule="evenodd" d="M2562.93 893.014C2556.9 840.064 2564.7 729.387 2565.22 722.663C2568.52 680.154 2548.61 512.294 2510.95 527.761C2447.79 477.761 2363.67 466.72 2285.01 461.446C2121.61 450.489 1947.79 475.642 1821.62 585.602C1759.23 642.706 1698.48 725.762 1703.37 812.24C1646.68 894.212 1566.76 1006.66 1637.39 1102.49C1661.4 1133.1 1699.56 1144.51 1729.72 1167.69C1790.39 1216.63 1828.45 1286.85 1889.69 1335.49C2051.95 1481.3 2327.45 1511.75 2486.87 1345.92C2610.14 1225.81 2590.21 1046.13 2568.52 893.014C2553.95 790.073 2574.68 996.315 2562.93 893.014Z" fill="#D08B5B"/>
<path fill-rule="evenodd" clip-rule="evenodd" d="M2066.73 236.899C2110.43 228.081 2155.3 222.594 2199.93 224.246L2203.37 224.38C2236.95 225.721 2279.47 228.69 2308.76 248.214C2310.44 246.523 2313.15 245.656 2315.61 246.829C2350.42 263.443 2388.7 275.455 2425.35 287.392C2461.84 299.27 2499.68 307.111 2537.92 310.271C2552.31 311.461 2564.62 326.995 2555.51 340.927C2553.34 344.247 2551.23 347.601 2549.13 350.963C2552.64 350.596 2556.16 350.219 2559.68 349.863C2571.25 348.698 2582.81 361.047 2582.12 372.311C2581.69 379.397 2580.93 386.398 2579.8 393.315C2584.2 393.223 2588.58 393.883 2592.82 395.672C2614.25 404.723 2612.76 430.25 2611.15 449.673C2608.93 476.625 2598.85 505.173 2580.13 525.346C2594.11 539.861 2604 557.194 2609.9 577.781C2614.18 592.814 2616.56 608.826 2615.39 624.475L2615.01 629.16C2613.56 646.142 2610.67 664.943 2598.45 677.16C2592.18 683.458 2584.45 685.754 2577.09 685.026C2581.54 724.161 2584.4 763.521 2587.09 802.74L2588.35 821.485C2594.34 912.129 2598.85 1003.36 2597.67 1094.16C2596.57 1179.01 2579.81 1261.36 2527.77 1330.26C2480.37 1392.99 2412.32 1439.24 2335.34 1456.82C2293.85 1466.31 2251.49 1466.98 2209.5 1460.93C2189.15 1457.99 2168.66 1453.49 2149.34 1446.38C2127.96 1438.48 2112.59 1426.86 2098.2 1409.45C2091.39 1401.19 2094.67 1383.61 2108.22 1385.27C2128.72 1387.75 2147.43 1390.75 2167.08 1396.81L2169.89 1397.7C2189.46 1403.97 2209.73 1408.64 2230.19 1410.63C2272.1 1414.69 2314.65 1410.6 2354.79 1397.89C2420.16 1377.18 2476.45 1331.01 2512.54 1273.01C2555.37 1204.26 2560.21 1126.21 2559.59 1047.16C2558.93 960.406 2556.11 873.607 2551.5 786.949L2550.72 772.507C2548.28 727.913 2545.93 683.29 2543.86 638.668C2543.22 624.671 2542.24 610.562 2540.47 596.593C2524.32 587.131 2509.85 574.086 2500.42 557.989C2481.46 565.828 2461.53 571.483 2443.19 575.99C2400.72 586.437 2356.61 588.973 2313.38 582.431C2301.72 587.249 2289.82 591.484 2277.74 595.129C2274.48 596.576 2271.22 597.998 2267.96 599.392C2238.84 611.85 2209.31 622.403 2178.57 630.13L2171.02 632.013C2154.85 636 2137.28 639.926 2120.06 641.159C2117.24 642.251 2114.18 643.175 2110.85 643.987C2095.18 647.794 2078.91 648.998 2062.84 647.654C2047.19 646.338 2035.88 630.522 2044.5 615.713C2050.8 604.907 2057.16 594.13 2063.57 583.38C2041.26 592.674 2018.22 600.4 1994.99 606.951C1971.53 613.557 1947.73 619.128 1923.91 624.251C1911.17 626.966 1898.38 629.374 1885.67 632.089C1876.57 634.021 1862.6 635.029 1855.18 641.019C1846.98 647.598 1844.66 662.939 1841.55 672.401C1837.46 684.69 1833.63 697.035 1830.13 709.521C1823.16 734.435 1817.45 759.714 1813.03 785.244C1808.6 810.803 1805.63 836.613 1803.98 862.507C1802.33 888.374 1803.06 914.408 1800.4 940.162C1798.97 953.823 1784.3 960.85 1773.47 951.304C1772.2 950.184 1770.92 949.052 1769.65 947.907L1767.76 946.181C1758.49 937.783 1749.5 928.881 1742.09 918.859C1740.75 917.011 1739.46 915.08 1738.25 913.12C1738.06 913.12 1737.89 913.064 1737.69 912.924L1735.64 911.377C1713 894.525 1675.17 872.555 1653.1 900.551C1646.06 909.47 1642.46 920.826 1639.47 931.782L1634.23 951.39C1630.83 964.191 1627.64 977.062 1625.77 990.16C1621.54 1019.5 1623.67 1053.31 1643.86 1076.83C1651.92 1086.23 1663.03 1092.95 1675.43 1094.72C1682.35 1095.67 1689.18 1094.49 1696.04 1093.63C1703.01 1092.76 1709.73 1094.16 1716.7 1093.49C1727.78 1092.39 1732.63 1105.66 1728.48 1114C1726.24 1118.48 1723.61 1122.35 1720.62 1125.62C1723.02 1127.69 1725.32 1129.93 1727.53 1132.28C1734.08 1134.38 1739.96 1138.89 1744.36 1144.85C1747.91 1149.67 1749.76 1154.9 1750.07 1160.42C1750.46 1161.79 1750.79 1163.19 1751.1 1164.62L1757.11 1174.36C1758.43 1176.5 1759.75 1178.61 1761.07 1180.69C1776.35 1204.76 1793.32 1225.14 1814.4 1244.34C1834.69 1262.82 1856.72 1279.36 1875.79 1299.18L1878.03 1301.54C1895.81 1320.27 1914.55 1342.94 1907.59 1370.18C1905.8 1377.18 1896.03 1382.21 1889.65 1377.48C1869.13 1362.25 1858.79 1338.12 1841.38 1319.65C1823.46 1300.61 1803.62 1283.51 1785.65 1264.53C1768.65 1246.61 1755.24 1226.32 1745.14 1203.98C1741.11 1208.43 1735.23 1211.59 1727.08 1212.82C1713.09 1214.92 1700.04 1206.72 1693.94 1194.6C1690.02 1196.33 1686.02 1197.9 1681.98 1199.13C1660.76 1205.63 1647.41 1182.03 1655.42 1164.59C1659.7 1155.24 1665.05 1147.12 1671.68 1140.29C1650.94 1137.44 1629.83 1126.71 1616.2 1113.33C1581.99 1079.71 1577.29 1029.18 1584.99 984.253C1589.07 960.43 1596.13 936.327 1605.28 913.96C1606.88 910.069 1608.59 906.15 1610.46 902.287C1609.42 902.259 1608.36 901.811 1607.69 900.943C1601.5 892.489 1593.97 885.574 1589.38 876.112C1585.15 867.434 1580.45 858.644 1577.12 849.602C1570.26 831.098 1566.9 810.215 1564.66 790.647C1560.04 750.588 1561.83 710.78 1567.97 670.973C1578.41 603.172 1603.62 538.287 1640.77 481.353C1638.75 480.29 1636.81 479.007 1635.01 477.49L1634.11 476.712L1632.66 475.402C1622.06 465.808 1622.98 447.828 1632.66 438.111L1635.72 435.045C1639.6 431.196 1642.94 428.147 1649.19 423.957C1650.12 423.339 1651.06 422.756 1652.02 422.213C1648.74 416.161 1647.6 409.084 1649.89 401.277C1657.84 374.078 1696.97 375.041 1721.78 386.902C1749.22 362.41 1779.65 341.149 1812.63 323.932C1891.18 282.949 1980.01 254.367 2066.73 236.899ZM1660.68 953.264C1675.35 948.477 1694.84 958.527 1708.02 964.573C1724.73 972.244 1738.95 983.581 1752.73 995.563C1759.59 1001.55 1760.81 1011.35 1759.11 1019.72C1758.94 1020.56 1758.77 1021.43 1758.57 1022.3C1756.76 1031.23 1746.79 1038.25 1737.97 1038C1719.52 1037.5 1710.74 1021.57 1700.29 1008.08C1699.06 1010.26 1697.52 1012.28 1695.62 1013.79L1694.33 1014.79C1690 1018.09 1685.22 1020.73 1679.49 1020.48C1675.43 1020.28 1671.54 1019.25 1667.96 1017.37C1659 1012.64 1655.06 1001.05 1657.49 991.615C1659 985.681 1662.47 981.034 1667.01 977.815L1665.32 976.658C1661.7 974.141 1658.4 971.487 1655.83 967.572L1655.25 966.645H1655.47C1652.67 961.83 1654.5 955.279 1660.68 953.264Z" fill="black"/>
<path fill-rule="evenodd" clip-rule="evenodd" d="M2062 704.973L2067.25 704.053L2069.95 703.597C2085.69 700.994 2104.35 699.253 2115.23 711.611C2121.33 718.542 2123.43 731.425 2115.23 738.059C2100.81 749.733 2084.86 745.209 2067.58 746.197C2053.33 747.014 2039.64 749.372 2025.93 753.293C1995.83 761.896 1971.3 777.601 1945.59 794.845C1942.22 797.107 1938.78 792.793 1940.39 789.638C1955.23 760.572 1983.98 736.696 2012.79 722.142C2028.16 714.374 2044.99 707.929 2062 704.973ZM2072.18 828.621C2077.14 828.621 2081.89 830.306 2086.21 833.424C2090.47 836.492 2094.32 840.971 2097.53 846.556C2103.6 857.126 2107.39 871.72 2107.39 887.857C2107.39 903.993 2103.6 918.587 2097.53 929.157C2094.32 934.742 2090.47 939.221 2086.21 942.289C2081.89 945.407 2077.14 947.092 2072.18 947.092C2067.21 947.092 2062.46 945.407 2058.14 942.289C2053.89 939.221 2050.03 934.742 2046.82 929.157C2040.75 918.587 2036.96 903.993 2036.96 887.857C2036.96 871.72 2040.75 857.126 2046.82 846.556C2050.03 840.971 2053.89 836.492 2058.14 833.424C2062.46 830.306 2067.21 828.621 2072.18 828.621ZM2386.38 828.621C2391.34 828.621 2396.09 830.306 2400.42 833.424C2404.67 836.492 2408.52 840.971 2411.73 846.556C2417.8 857.126 2421.6 871.72 2421.6 887.857C2421.6 903.993 2417.8 918.587 2411.73 929.157C2408.52 934.742 2404.67 939.221 2400.42 942.289C2396.09 945.407 2391.34 947.092 2386.38 947.092C2381.42 947.092 2376.67 945.407 2372.35 942.289C2368.09 939.221 2364.24 934.742 2361.03 929.157C2354.96 918.587 2351.16 903.993 2351.16 887.857C2351.16 871.72 2354.96 857.126 2361.03 846.556C2364.24 840.971 2368.09 836.492 2372.35 833.424C2376.67 830.306 2381.42 828.621 2386.38 828.621ZM2343.63 691.953L2347.65 692.776L2350.32 693.342C2393.71 702.675 2448.72 721.073 2469.03 763.201C2469.82 769.281 2468.99 770.584 2468.31 771.436L2468.08 771.719C2467.52 772.446 2467.08 773.448 2464.44 774.275C2463.71 774.101 2462.97 773.917 2462.22 773.721C2452.72 771.231 2445.2 767.8 2437.93 764.241L2430.03 760.353C2420.88 755.864 2411.64 751.538 2401.85 748.345C2380.96 741.531 2359.48 736.731 2337.66 734.168C2332.93 733.613 2328.38 732.017 2324.78 729.282C2321.37 726.685 2318.77 723.09 2317.58 718.312C2316.04 712.128 2316.48 707.446 2319.8 701.867C2322.3 697.678 2325.87 694.774 2329.96 693.106C2334.14 691.406 2338.9 691.005 2343.63 691.953Z" fill="black"/>
<path fill-rule="evenodd" clip-rule="evenodd" d="M2273.74 1211.67C2255.84 1211.82 2235.73 1205.1 2222.28 1199.85L2218.77 1198.46C2207.13 1193.79 2195.17 1188.44 2186.26 1179.46C2183.4 1176.54 2180.37 1173.24 2178.83 1169.76C2177.92 1167.73 2177.55 1165.62 2178.42 1163.53C2181.65 1163.21 2184.7 1162.8 2187.6 1162.27C2188.97 1162.02 2190.29 1161.76 2191.31 1161.75C2195.04 1161.73 2198.73 1162.2 2202.42 1162.67C2202.95 1162.73 2203.48 1162.8 2204.02 1162.87C2206.89 1163.22 2209.75 1163.61 2212.6 1163.99C2220.89 1165.1 2229.15 1166.21 2237.56 1166.61C2243.64 1166.9 2250.01 1166.56 2256.44 1166.21C2273.11 1165.3 2290.35 1164.07 2303.19 1175.74C2306.56 1178.8 2307.96 1182.65 2307.96 1186.58C2307.96 1191.35 2305.96 1196.2 2302.89 1200.01C2295.96 1208.63 2285.29 1211.58 2273.74 1211.67Z" fill="black"/>
</svg>
